<?xml version="1.0" encoding="UTF-8" standalone="no"?><!DOCTYPE svg PUBLIC "-//W3C//DTD SVG 1.1//EN" "http://www.w3.org/Graphics/SVG/1.1/DTD/svg11.dtd"><svg width="100%" height="100%" viewBox="0 0 750 500" version="1.1" xmlns="http://www.w3.org/2000/svg" xmlns:xlink="http://www.w3.org/1999/xlink" xml:space="preserve" xmlns:serif="http://www.serif.com/" style="fill-rule:evenodd;clip-rule:evenodd;stroke-linejoin:round;stroke-miterlimit:2;"><g><rect x="0" y="0" width="750" height="500" style="fill:#fff;fill-rule:nonzero;"/><path d="M253.389,457.117l-149.941,0c-20.359,-24.549 -11.314,-47.12 9.647,-47.12c6.829,0 14.919,2.394 23.673,7.895c1.257,-32.746 16.653,-46.005 33.406,-46.005c20.597,-0 43.245,20.037 44.2,48.536c11.14,-14.215 22.272,-19.899 31.447,-19.899c21.428,0 32.197,30.976 7.568,56.593Z" style="fill:#cac9e5;fill-rule:nonzero;"/><path d="M624.78,165.461l-94.371,-0c-12.815,-15.45 -7.121,-29.656 6.072,-29.656c4.298,-0 9.389,1.506 14.899,4.968c0.791,-20.609 10.481,-28.954 21.026,-28.954c12.963,0 27.217,12.61 27.819,30.547c7.011,-8.947 14.017,-12.524 19.792,-12.524c13.486,0 20.264,19.496 4.763,35.619Z" style="fill:#cac9e5;fill-rule:nonzero;"/><path d="M584.478,182.706l0,-14.383l-12.064,-0l0,14.383l-7.477,-0l13.509,17.148l13.509,-17.148l-7.477,-0Z" style="fill:#4281c3;fill-rule:nonzero;"/><path d="M439.528,384.853l-130.137,-0c-6.736,-0 -12.196,-5.461 -12.196,-12.196l0,-252.678c0,-6.735 5.46,-12.195 12.196,-12.195l130.137,-0c6.736,-0 12.196,5.46 12.196,12.196l-0,252.677c-0,6.735 -5.46,12.196 -12.196,12.196Z" style="fill:#fff;fill-rule:nonzero;"/><path d="M457.388,173.325l-5.537,0l0,-28.263c1.562,0.392 7.4,-1.192 7.285,1.748l-0,24.767c-0,0.965 -0.783,1.748 -1.748,1.748Z" style="fill:#0a132c;fill-rule:nonzero;"/><path d="M291.532,173.325l5.536,0l-0,-28.263c-1.561,0.392 -7.4,-1.192 -7.284,1.748l-0,24.767c-0,0.965 0.782,1.748 1.748,1.748Z" style="fill:#0a132c;fill-rule:nonzero;"/><path d="M457.388,206.104l-5.537,0l0,-28.263c1.562,0.393 7.4,-1.192 7.285,1.748l-0,24.767c-0,0.966 -0.783,1.748 -1.748,1.748Z" style="fill:#0a132c;fill-rule:nonzero;"/><path d="M300.964,372.049l-0,-251.867c-0,-4.602 3.731,-8.333 8.334,-8.333l130.323,-0c4.603,-0 8.334,3.731 8.334,8.333l-0,251.866c-0,4.603 -3.731,8.334 -8.334,8.334l-130.323,0c-4.602,0 -8.334,-3.731 -8.334,-8.333Zm136.164,-281.182l-125.338,0c-10.142,0 -18.364,8.222 -18.364,18.364l-0,282.595c-0,10.144 8.223,18.367 18.367,18.367l125.335,0c10.143,0 18.366,-8.223 18.366,-18.366l-0,-282.594c-0,-10.143 -8.223,-18.366 -18.366,-18.366Z" style="fill:#8c90c7;fill-rule:nonzero;"/><path d="M389.652,399.235l-30.384,0c-3.184,0 -5.766,-2.581 -5.766,-5.765c0,-3.184 2.582,-5.766 5.766,-5.766l30.384,0c7.471,-0.109 7.486,11.641 0,11.531Z" style="fill:#0a132c;fill-rule:nonzero;"/><path d="M397.731,103.25l-45.462,0c-0.965,0 -1.747,-0.782 -1.747,-1.747c0,-0.964 0.782,-1.747 1.747,-1.747l45.462,0c0.965,0 1.747,0.783 1.747,1.747c-0,0.965 -0.782,1.747 -1.747,1.747Z" style="fill:#0a132c;fill-rule:nonzero;"/><path d="M397.635,218.279c-0.22,-0 -0.441,-0.076 -0.62,-0.231c-4.322,-3.741 -9.519,-6.222 -15.448,-7.374c-0.515,-0.099 -0.851,-0.597 -0.751,-1.112c0.1,-0.514 0.601,-0.853 1.112,-0.75c6.26,1.215 11.753,3.84 16.328,7.801c0.397,0.343 0.44,0.942 0.097,1.338c-0.188,0.217 -0.452,0.328 -0.718,0.328Z" style="fill:#ef3e63;fill-rule:nonzero;"/><path d="M359.655,212.747c-0.367,0 -0.715,-0.213 -0.871,-0.571c-0.209,-0.48 0.011,-1.039 0.492,-1.248c4.43,-1.926 9.188,-2.903 14.142,-2.903c1.506,-0 2.997,0.068 4.43,0.204c0.522,0.049 0.906,0.511 0.857,1.033c-0.05,0.522 -0.509,0.903 -1.034,0.856c-1.375,-0.13 -2.806,-0.195 -4.253,-0.195c-4.692,0 -9.195,0.923 -13.385,2.746c-0.123,0.053 -0.252,0.078 -0.378,0.078Z" style="fill:#ef3e63;fill-rule:nonzero;"/><path d="M347.018,284.803c-0.324,-0 -0.639,-0.165 -0.816,-0.463c-2.1,-3.526 -3.863,-7.362 -5.242,-11.4c-0.169,-0.496 0.096,-1.035 0.592,-1.205c0.497,-0.168 1.036,0.097 1.205,0.592c1.335,3.914 3.042,7.629 5.075,11.042c0.269,0.45 0.121,1.032 -0.33,1.3c-0.152,0.091 -0.319,0.134 -0.484,0.134Z" style="fill:#ef3e63;fill-rule:nonzero;"/><path d="M356.931,297.053c-0.231,-0 -0.462,-0.083 -0.645,-0.253c-3.008,-2.782 -5.71,-5.9 -8.033,-9.263c-0.297,-0.431 -0.189,-1.022 0.242,-1.32c0.431,-0.297 1.023,-0.19 1.32,0.242c2.243,3.249 4.854,6.26 7.76,8.948c0.385,0.356 0.408,0.957 0.052,1.341c-0.187,0.203 -0.441,0.305 -0.696,0.305Z" style="fill:#ef3e63;fill-rule:nonzero;"/><path d="M367.444,299.211c-0.176,-0 -0.354,-0.049 -0.513,-0.152c-27.871,-17.982 -25.075,-50.678 -24.664,-54.347c0.562,-18.178 13.956,-31.943 31.151,-31.943c23.363,0 32.905,18.548 33.978,34.43c0.035,0.523 -0.36,0.976 -0.883,1.011c-0.534,0.04 -0.975,-0.361 -1.01,-0.883c-1.067,-15.789 -10.055,-32.66 -32.085,-32.66c-16.145,-0 -28.725,12.975 -29.26,30.18c-0.402,3.626 -3.109,35.255 23.802,52.617c0.44,0.285 0.567,0.872 0.282,1.312c-0.181,0.281 -0.486,0.435 -0.798,0.435Z" style="fill:#ef3e63;fill-rule:nonzero;"/><path d="M407.062,254.959c-0.09,-0 -0.18,-0.012 -0.271,-0.039c-4.032,-1.193 -5.713,-5.318 -5.928,-8.488c-0.038,-0.555 -0.087,-1.105 -0.149,-1.649c-0.059,-0.52 0.314,-0.99 0.835,-1.05c0.511,-0.056 0.991,0.314 1.05,0.835c0.065,0.572 0.118,1.151 0.157,1.735c0.14,2.064 1.261,5.817 4.574,6.797c0.503,0.149 0.79,0.677 0.641,1.179c-0.123,0.413 -0.5,0.68 -0.909,0.68Z" style="fill:#ef3e63;fill-rule:nonzero;"/><path d="M401.028,241.897c-0.434,0 -0.826,-0.299 -0.925,-0.74c-1.301,-5.769 -4.097,-10.799 -8.089,-14.545c-0.382,-0.359 -0.401,-0.959 -0.042,-1.341c0.36,-0.383 0.959,-0.4 1.34,-0.043c4.27,4.007 7.258,9.371 8.642,15.511c0.115,0.512 -0.206,1.019 -0.717,1.135l-0.209,0.023Z" style="fill:#ef3e63;fill-rule:nonzero;"/><path d="M389.253,224.155c-0.182,-0 -0.366,-0.052 -0.528,-0.161c-3.425,-2.296 -7.349,-3.757 -11.66,-4.341c-1.206,-0.16 -2.433,-0.242 -3.647,-0.242c-0.524,0 -0.948,-0.425 -0.948,-0.949c0,-0.524 0.424,-0.949 0.948,-0.949c1.298,0 2.609,0.087 3.899,0.26c4.604,0.623 8.797,2.185 12.465,4.645c0.435,0.292 0.551,0.881 0.26,1.316c-0.183,0.273 -0.484,0.421 -0.789,0.421Z" style="fill:#ef3e63;fill-rule:nonzero;"/><path d="M352.981,229.502c-0.201,0 -0.404,-0.064 -0.576,-0.195c-0.416,-0.319 -0.495,-0.914 -0.177,-1.331c4.141,-5.409 10.067,-8.994 16.685,-10.094c0.521,-0.084 1.006,0.264 1.092,0.78c0.086,0.517 -0.264,1.006 -0.78,1.092c-6.142,1.021 -11.643,4.35 -15.49,9.376c-0.187,0.244 -0.469,0.372 -0.754,0.372Z" style="fill:#ef3e63;fill-rule:nonzero;"/><path d="M347.028,251.748c-0.514,0 -0.937,-0.412 -0.948,-0.929c-0.07,-3.264 0.169,-5.361 0.215,-5.727c0.122,-4.673 1.318,-9.261 3.46,-13.269c0.247,-0.462 0.822,-0.637 1.283,-0.389c0.463,0.246 0.637,0.821 0.39,1.283c-2.01,3.763 -3.13,8.076 -3.237,12.472l-0.009,0.103c-0.003,0.02 -0.278,2.122 -0.205,5.486c0.011,0.524 -0.404,0.958 -0.928,0.969l-0.021,0.001Z" style="fill:#ef3e63;fill-rule:nonzero;"/><path d="M351.512,272.769c-0.368,-0 -0.719,-0.215 -0.873,-0.576c-2.125,-4.971 -3.531,-10.315 -4.18,-15.888c-0.061,-0.521 0.313,-0.992 0.833,-1.053c0.522,-0.064 0.992,0.312 1.052,0.833c0.628,5.392 1.987,10.559 4.04,15.363c0.206,0.482 -0.018,1.039 -0.499,1.245c-0.122,0.052 -0.249,0.076 -0.373,0.076Z" style="fill:#ef3e63;fill-rule:nonzero;"/><path d="M364.485,290.867c-0.226,0 -0.453,-0.08 -0.634,-0.243c-4.758,-4.27 -8.642,-9.282 -11.546,-14.896c-0.241,-0.466 -0.059,-1.038 0.406,-1.279c0.466,-0.241 1.038,-0.058 1.28,0.407c2.797,5.41 6.542,10.24 11.128,14.356c0.39,0.35 0.422,0.95 0.072,1.34c-0.187,0.209 -0.447,0.315 -0.706,0.315Z" style="fill:#ef3e63;fill-rule:nonzero;"/><path d="M378.158,299.98c-0.14,-0 -0.282,-0.031 -0.416,-0.097c-3.77,-1.846 -7.271,-3.992 -10.403,-6.376c-0.417,-0.317 -0.498,-0.913 -0.18,-1.329c0.316,-0.418 0.912,-0.499 1.329,-0.181c3.035,2.309 6.43,4.389 10.089,6.183c0.47,0.23 0.665,0.799 0.435,1.269c-0.166,0.336 -0.503,0.531 -0.854,0.531Z" style="fill:#ef3e63;fill-rule:nonzero;"/><path d="M384.858,298.493c-0.133,-0 -0.268,-0.028 -0.397,-0.087c-33.709,-15.53 -35.139,-44.296 -34.776,-52.742l0.014,-0.349c0.312,-12.707 10.952,-23.058 23.719,-23.058c1.086,-0 2.187,0.074 3.271,0.219c12.266,1.659 20.44,10.912 21.334,24.148c0.332,4.912 3.305,10.315 9.196,11.312c0.516,0.088 0.865,0.577 0.777,1.094c-0.087,0.516 -0.573,0.865 -1.093,0.777c-6.911,-1.169 -10.39,-7.399 -10.773,-13.055c-0.83,-12.283 -8.376,-20.864 -19.693,-22.396c-1,-0.133 -2.016,-0.201 -3.019,-0.201c-11.746,-0 -21.535,9.52 -21.822,21.221l-0.014,0.367c-0.352,8.151 1.037,35.904 33.674,50.94c0.476,0.219 0.684,0.783 0.464,1.259c-0.159,0.347 -0.503,0.551 -0.862,0.551Z" style="fill:#ef3e63;fill-rule:nonzero;"/><path d="M407.06,264.569l-0.222,-0.026c-6.709,-1.606 -11.097,-4.545 -13.412,-8.984c-0.242,-0.464 -0.062,-1.037 0.403,-1.28c0.464,-0.242 1.038,-0.062 1.28,0.403c2.046,3.922 6.027,6.545 12.172,8.015c0.509,0.122 0.823,0.634 0.701,1.144c-0.104,0.436 -0.493,0.728 -0.922,0.728Z" style="fill:#ef3e63;fill-rule:nonzero;"/><path d="M392.91,252.316c-0.432,-0 -0.822,-0.297 -0.924,-0.736c-0.185,-0.806 -0.327,-1.647 -0.432,-2.57c-0.073,-0.639 -0.125,-1.303 -0.163,-2.033c-0.138,-2.705 -0.736,-5.253 -1.779,-7.573c-0.215,-0.479 -0.002,-1.04 0.476,-1.255c0.478,-0.214 1.04,-0.001 1.255,0.476c1.14,2.537 1.794,5.315 1.943,8.255c0.036,0.691 0.086,1.317 0.153,1.915c0.098,0.851 0.228,1.624 0.397,2.36c0.118,0.511 -0.202,1.02 -0.712,1.137l-0.214,0.024Z" style="fill:#ef3e63;fill-rule:nonzero;"/><path d="M388.212,236.146c-0.286,-0 -0.569,-0.129 -0.755,-0.374c-2.12,-2.779 -4.987,-4.832 -8.291,-5.937c-0.497,-0.166 -0.765,-0.703 -0.599,-1.2c0.166,-0.497 0.703,-0.765 1.2,-0.599c3.667,1.225 6.848,3.503 9.198,6.585c0.318,0.417 0.238,1.013 -0.178,1.331c-0.172,0.13 -0.375,0.194 -0.575,0.194Z" style="fill:#ef3e63;fill-rule:nonzero;"/><path d="M363.978,231.609c-0.317,0 -0.626,-0.158 -0.806,-0.447c-0.277,-0.445 -0.141,-1.031 0.305,-1.307c3.637,-2.263 7.937,-3.207 12.186,-2.726c0.52,0.058 0.895,0.528 0.836,1.049c-0.058,0.52 -0.513,0.902 -1.049,0.836c-3.823,-0.43 -7.695,0.414 -10.971,2.452c-0.156,0.097 -0.329,0.143 -0.501,0.143Z" style="fill:#ef3e63;fill-rule:nonzero;"/><path d="M355.336,248.565l-0.002,0c-0.523,-0.001 -0.948,-0.426 -0.947,-0.95c0.001,-0.617 0.015,-1.2 0.038,-1.747l0.015,-0.36c0.119,-4.85 2.11,-9.448 5.603,-12.931c0.372,-0.37 0.972,-0.369 1.343,0.002c0.369,0.371 0.368,0.972 -0.003,1.342c-3.146,3.137 -4.938,7.274 -5.046,11.649l-0.015,0.378c-0.024,0.525 -0.036,1.081 -0.037,1.669c-0.001,0.524 -0.425,0.948 -0.949,0.948Z" style="fill:#ef3e63;fill-rule:nonzero;"/><path d="M360.328,269.978c-0.351,-0 -0.688,-0.195 -0.854,-0.531c-2.648,-5.406 -4.285,-11.211 -4.866,-17.254c-0.05,-0.521 0.332,-0.985 0.853,-1.035c0.53,-0.048 0.986,0.332 1.036,0.854c0.559,5.815 2.134,11.4 4.682,16.6c0.231,0.47 0.036,1.039 -0.435,1.269c-0.134,0.066 -0.276,0.097 -0.416,0.097Z" style="fill:#ef3e63;fill-rule:nonzero;"/><path d="M373.251,286.315c-0.215,0 -0.431,-0.073 -0.609,-0.222c-4.513,-3.78 -8.271,-8.145 -11.169,-12.972c-0.27,-0.45 -0.125,-1.033 0.325,-1.302c0.448,-0.27 1.032,-0.126 1.302,0.325c2.789,4.646 6.41,8.85 10.761,12.495c0.402,0.336 0.455,0.935 0.119,1.336c-0.188,0.224 -0.458,0.34 -0.729,0.34Z" style="fill:#ef3e63;fill-rule:nonzero;"/><path d="M389.975,296.316c-0.122,-0 -0.247,-0.024 -0.367,-0.075c-4.924,-2.075 -9.422,-4.555 -13.37,-7.369c-0.427,-0.304 -0.526,-0.897 -0.222,-1.323c0.305,-0.428 0.898,-0.527 1.324,-0.222c3.834,2.733 8.21,5.144 13.005,7.165c0.483,0.204 0.71,0.761 0.506,1.244c-0.153,0.362 -0.505,0.58 -0.876,0.58Z" style="fill:#ef3e63;fill-rule:nonzero;"/><path d="M394.333,293.525c-0.11,-0 -0.222,-0.019 -0.331,-0.059c-32.519,-12.107 -35.191,-37.259 -34.831,-47.511l0.011,-0.316c0.187,-7.661 6.574,-13.893 14.236,-13.893c0.669,0 1.347,0.045 2.018,0.134c7.431,1.007 12.7,7.131 13.112,15.241c0.363,7.137 2.693,17.018 18.672,20.427c0.512,0.109 0.839,0.613 0.73,1.125c-0.109,0.513 -0.61,0.841 -1.126,0.73c-12.955,-2.763 -19.553,-10.02 -20.171,-22.185c-0.364,-7.17 -4.974,-12.577 -11.469,-13.457c-0.586,-0.078 -1.18,-0.117 -1.766,-0.117c-6.528,0 -12.179,5.514 -12.339,12.041l-0.011,0.337c-0.346,9.84 2.234,33.99 33.596,45.665c0.491,0.183 0.741,0.729 0.558,1.22c-0.142,0.382 -0.504,0.618 -0.889,0.618Z" style="fill:#ef3e63;fill-rule:nonzero;"/><path d="M364.012,246.614l-0.129,-0.009c-0.519,-0.07 -0.883,-0.548 -0.813,-1.068c0.771,-5.698 6.04,-9.718 11.738,-8.954c2.421,0.328 4.546,1.455 6.147,3.261c0.349,0.392 0.312,0.992 -0.08,1.339c-0.392,0.347 -0.992,0.312 -1.339,-0.08c-1.296,-1.461 -3.018,-2.373 -4.98,-2.639c-4.668,-0.625 -8.974,2.664 -9.605,7.328c-0.065,0.476 -0.472,0.822 -0.939,0.822Zm20.363,10.497c-0.394,-0 -0.764,-0.248 -0.898,-0.643c-0.907,-2.666 -1.418,-5.628 -1.564,-9.056c-0.049,-1.157 -0.256,-2.261 -0.617,-3.281c-0.175,-0.494 0.084,-1.036 0.578,-1.211c0.492,-0.175 1.035,0.084 1.211,0.578c0.423,1.199 0.667,2.488 0.724,3.833c0.138,3.245 0.617,6.034 1.465,8.526c0.169,0.496 -0.097,1.035 -0.593,1.204c-0.101,0.034 -0.204,0.05 -0.306,0.05Zm-16.34,8.516c-0.36,-0 -0.703,-0.205 -0.863,-0.553c-2.885,-6.283 -3.798,-12.088 -4.056,-15.852c-0.036,-0.522 0.359,-0.975 0.882,-1.011c0.512,-0.036 0.975,0.359 1.011,0.881c0.247,3.606 1.123,9.169 3.888,15.19c0.218,0.476 0.009,1.039 -0.467,1.258c-0.128,0.059 -0.262,0.087 -0.395,0.087Zm28.012,4.766c-0.151,0 -0.305,-0.036 -0.447,-0.113c-4.654,-2.492 -8.162,-5.84 -10.426,-9.95c-0.252,-0.46 -0.086,-1.038 0.374,-1.289c0.457,-0.253 1.035,-0.086 1.289,0.372c2.084,3.785 5.333,6.878 9.659,9.195c0.462,0.247 0.636,0.822 0.388,1.284c-0.171,0.32 -0.498,0.501 -0.837,0.501Zm10.403,3.757l-0.214,-0.025c-2.351,-0.542 -4.562,-1.211 -6.569,-1.987c-0.488,-0.19 -0.731,-0.739 -0.542,-1.228c0.19,-0.489 0.738,-0.732 1.228,-0.543c1.923,0.745 4.046,1.387 6.31,1.91c0.51,0.117 0.829,0.627 0.711,1.137c-0.101,0.439 -0.492,0.736 -0.924,0.736Zm-25.206,7.871c-0.2,-0 -0.401,-0.063 -0.573,-0.193c-4.825,-3.665 -8.758,-8.118 -11.689,-13.236c-0.261,-0.455 -0.103,-1.035 0.352,-1.295c0.455,-0.259 1.034,-0.103 1.295,0.351c2.803,4.896 6.569,9.158 11.19,12.668c0.417,0.317 0.499,0.913 0.182,1.33c-0.187,0.246 -0.47,0.375 -0.757,0.375Zm16.59,8.42c-0.096,-0 -0.194,-0.015 -0.291,-0.046c-4.961,-1.598 -9.486,-3.682 -13.45,-6.193c-0.443,-0.28 -0.574,-0.867 -0.294,-1.309c0.28,-0.443 0.866,-0.575 1.31,-0.294c3.828,2.425 8.208,4.44 13.017,5.99c0.498,0.161 0.772,0.696 0.611,1.194c-0.129,0.402 -0.502,0.658 -0.903,0.658Z" style="fill:#ef3e63;fill-rule:nonzero;"/><path d="M400.866,286.872l-0.265,-0.038c-36.463,-10.592 -32.869,-40.371 -32.829,-40.67c0.421,-3.108 3.292,-5.3 6.405,-4.879c2.81,0.38 4.775,2.879 4.891,6.219c0.246,7.047 3.304,24.013 26.34,29.328c0.51,0.118 0.829,0.627 0.711,1.138c-0.118,0.51 -0.632,0.829 -1.138,0.711c-24.316,-5.611 -27.549,-23.626 -27.81,-31.111c-0.064,-1.838 -0.953,-4.094 -3.248,-4.405c-2.083,-0.279 -3.989,1.181 -4.27,3.253c-0.034,0.279 -3.122,28.543 31.478,38.594c0.503,0.146 0.792,0.673 0.646,1.175c-0.121,0.415 -0.5,0.685 -0.911,0.685Z" style="fill:#ef3e63;fill-rule:nonzero;"/><path d="M403.27,283.049l-0.246,-0.032c-3.493,-0.936 -6.75,-2.107 -9.682,-3.481c-0.474,-0.222 -0.679,-0.788 -0.457,-1.262c0.223,-0.474 0.79,-0.678 1.263,-0.457c2.83,1.327 5.981,2.46 9.367,3.366c0.506,0.136 0.806,0.656 0.67,1.162c-0.113,0.425 -0.497,0.704 -0.915,0.704Z" style="fill:#ef3e63;fill-rule:nonzero;"/><path d="M390.474,277.934c-0.16,0 -0.321,-0.04 -0.469,-0.125c-5.602,-3.195 -9.97,-7.316 -12.982,-12.249c-0.273,-0.447 -0.132,-1.031 0.315,-1.304c0.446,-0.272 1.032,-0.132 1.304,0.315c2.844,4.656 6.983,8.555 12.303,11.59c0.456,0.259 0.614,0.839 0.354,1.294c-0.175,0.307 -0.495,0.479 -0.825,0.479Z" style="fill:#ef3e63;fill-rule:nonzero;"/><path d="M376.029,262.591c-0.362,0 -0.708,-0.208 -0.866,-0.56c-3.608,-8.036 -2.728,-14.941 -2.689,-15.231c0.07,-0.519 0.549,-0.879 1.067,-0.813c0.519,0.07 0.883,0.547 0.814,1.066c-0.009,0.066 -0.836,6.683 2.539,14.2c0.215,0.478 0.001,1.04 -0.477,1.255c-0.126,0.057 -0.258,0.083 -0.388,0.083Z" style="fill:#ef3e63;fill-rule:nonzero;"/><path d="M374.46,322.663l0.55,1.395c13.536,-5.335 24.217,-12.611 32.594,-20.964c12.569,-12.531 19.941,-27.457 24.166,-41.858c4.226,-14.404 5.318,-28.296 5.319,-38.863c-0,-11.449 -1.285,-18.996 -1.295,-19.058c-0.123,-0.719 -0.75,-1.248 -1.479,-1.248c-24.569,-0.001 -39.259,-4.907 -47.765,-9.705c-4.254,-2.401 -6.969,-4.778 -8.609,-6.526c-0.821,-0.874 -1.372,-1.591 -1.712,-2.076c-0.17,-0.243 -0.287,-0.427 -0.358,-0.545l-0.072,-0.124l-0.012,-0.021l-0.396,0.214l0.399,-0.208l-0.003,-0.006l-0.396,0.214l0.399,-0.208c-0.259,-0.497 -0.77,-0.807 -1.33,-0.807c-0.56,0 -1.071,0.31 -1.33,0.807l0.398,0.208l-0.395,-0.214l-0.003,0.006l0.398,0.208l-0.395,-0.214c-0.05,0.084 -2.605,4.788 -11.167,9.517c-8.564,4.725 -23.176,9.479 -47.362,9.48c-0.729,-0 -1.356,0.529 -1.478,1.248c-0.011,0.062 -1.295,7.609 -1.296,19.058c0.003,14.088 1.938,34.095 10.669,53.331c4.366,9.616 10.438,19.038 18.816,27.39c8.377,8.353 19.059,15.629 32.595,20.964c0.351,0.139 0.749,0.139 1.1,-0l-0.55,-1.395l0.55,-1.395c-13.171,-5.195 -23.484,-12.232 -31.576,-20.299c-12.135,-12.097 -19.285,-26.537 -23.406,-40.577c-4.12,-14.037 -5.199,-27.659 -5.198,-38.019c-0,-5.612 0.316,-10.266 0.63,-13.509c0.157,-1.622 0.314,-2.891 0.431,-3.75c0.059,-0.43 0.107,-0.758 0.141,-0.976c0.017,-0.109 0.03,-0.19 0.038,-0.244l0.013,-0.075l-1.479,-0.252l0,1.5c24.962,0.001 40.201,-4.992 49.24,-10.092c9.04,-5.097 11.837,-10.295 11.946,-10.512l-1.33,-0.694l-1.33,0.694c0.109,0.217 2.906,5.415 11.946,10.512c9.039,5.1 24.277,10.093 49.239,10.092l0,-1.5l-1.478,0.252l0.012,0.075c0.13,0.802 1.24,7.956 1.24,18.479c0.003,13.815 -1.92,33.423 -10.4,52.091c-4.24,9.336 -10.112,18.439 -18.203,26.505c-8.093,8.067 -18.405,15.104 -31.576,20.299l0.55,1.395l0.55,-1.395l-0.55,1.395Z" style="fill:#0a132c;fill-rule:nonzero;"/><path d="M231.311,146.365c0,-0 5.046,6.766 6.289,19.277l-14.588,-2.809l3.065,-13.915" style="fill:#030404;fill-rule:nonzero;"/><path d="M276.294,414.502l-3.016,20.839c0,0 -10.197,5.471 -24.059,-1.679l1.288,-21.893l25.787,2.733Z" style="fill:#f69996;fill-rule:nonzero;"/><path d="M303.43,457.117l-60.723,0c0,0 -1.021,-13.693 6.512,-23.455l11.123,2.416c0,-0 3.701,-5.139 5.381,-5.556c1.68,-0.417 9.652,-0.835 9.652,-0.835l1.46,5.754l1.23,3.229l4.733,1.496c6.019,-2.234 11.187,-2.256 13.142,-1.498c7.291,2.877 7.49,18.449 7.49,18.449Z" style="fill:#502e8e;fill-rule:nonzero;"/><path d="M210.454,417.961l2.944,18.91c-0,-0 10.102,4.38 21.566,0.629l-1.944,-21.884" style="fill:#f69996;fill-rule:nonzero;"/><path d="M207.15,457.117l42.324,0c-0,0 1.388,-11.473 -5.661,-16.644c-1.168,-0.848 -5.672,-3.514 -7.268,-3.979c-0.474,-3.629 -0.675,-6.394 -0.857,-6.768c-0.356,-0.693 -11.927,0.562 -15.881,1.403c-1.066,0.227 -2.682,5.068 -2.682,5.068l-3.727,0.674c-8.035,7.451 -6.248,20.246 -6.248,20.246Z" style="fill:#502e8e;fill-rule:nonzero;"/><path d="M249.673,457.141c0.001,-0.006 0.112,-0.929 0.112,-2.37c-0.003,-3.653 -0.706,-10.672 -5.854,-14.459l-0.28,0.043l0.043,0.28c4.968,3.633 5.695,10.524 5.691,14.136c-0,0.71 -0.027,1.292 -0.055,1.696c-0.027,0.404 -0.054,0.625 -0.054,0.626c-0.013,0.11 0.065,0.209 0.174,0.223c0.11,0.013 0.21,-0.065 0.223,-0.175Z" style="fill:#030404;fill-rule:nonzero;"/><path d="M200.383,237.197c-0,-0 -14.96,18.086 -13.62,37.065c1.34,18.979 11.387,61.403 11.387,61.403c-0,-0 -3.572,8.485 -0.446,23.444c3.126,14.96 10.739,66.245 10.739,66.245c-0,-0 16.055,3.42 29.452,-1.269l-8.485,-130.844c6.384,17.862 13.459,33.026 21.212,45.55c-5.605,16.454 -3.418,51.823 -4.019,84.178c-0,0 15.398,5.624 29.241,2.052c-0,0 9.833,-80.202 8.717,-86.677c-1.116,-6.475 -33.716,-105.39 -33.716,-105.39" style="fill:#4281c3;fill-rule:nonzero;"/><path d="M233.767,289.332c0.002,0.003 2.624,8.674 6.66,18.833c4.04,10.16 9.481,21.802 15.169,27.785l0.069,0.047l6.44,2.637l-5.836,1.388l-0.123,0.087c-0.751,1.193 -1.373,3.565 -1.918,6.937c-1.625,10.105 -2.44,29.126 -2.44,50.677c-0,7.612 0.102,15.539 0.306,23.498c0.003,0.111 0.095,0.198 0.205,0.195c0.111,-0.003 0.198,-0.095 0.195,-0.205c-0.204,-7.956 -0.306,-15.879 -0.306,-23.488c0,-14.359 0.363,-27.597 1.085,-37.808c0.36,-5.106 0.811,-9.455 1.35,-12.805c0.536,-3.348 1.174,-5.709 1.861,-6.787l-0.169,-0.107l0.047,0.195l6.441,-1.532l0.153,-0.179l-0.124,-0.201l-7.015,-2.872l-0.076,0.185l0.145,-0.138c-5.61,-5.89 -11.06,-17.517 -15.087,-27.657c-2.015,-5.071 -3.677,-9.772 -4.836,-13.205c-0.579,-1.716 -1.033,-3.116 -1.341,-4.086c-0.308,-0.97 -0.471,-1.508 -0.472,-1.51c-0.032,-0.106 -0.143,-0.165 -0.249,-0.133c-0.106,0.031 -0.165,0.143 -0.134,0.249Z" style="fill:#030404;fill-rule:nonzero;"/><path d="M195.842,259.037c-0.003,0.013 -2.096,6.319 -2.097,13.915c-0,1.071 0.042,2.168 0.137,3.276c0.769,8.949 9.576,57.699 9.577,57.705l0.197,-0.036l-0.183,-0.081c-0.009,0.02 -1.958,4.452 -1.958,12.381c-0,2.44 0.184,5.21 0.667,8.284c1.02,6.509 3.574,23.775 5.872,39.413c2.297,15.638 4.34,29.649 4.34,29.649c0.016,0.109 0.117,0.185 0.227,0.169c0.109,-0.016 0.185,-0.117 0.169,-0.227c-0,0 -8.17,-56.041 -10.213,-69.066c-0.479,-3.053 -0.662,-5.803 -0.662,-8.222c-0,-3.931 0.483,-6.991 0.965,-9.066c0.241,-1.037 0.482,-1.828 0.662,-2.358c0.09,-0.265 0.165,-0.465 0.217,-0.599c0.052,-0.133 0.08,-0.196 0.08,-0.196l0.014,-0.117c-0.001,-0.002 -0.138,-0.761 -0.38,-2.112c-1.696,-9.451 -8.526,-47.778 -9.192,-55.555c-0.095,-1.096 -0.136,-2.181 -0.136,-3.242c0,-3.762 0.52,-7.212 1.039,-9.72c0.26,-1.254 0.52,-2.272 0.715,-2.977c0.194,-0.705 0.323,-1.091 0.323,-1.092c0.035,-0.104 -0.022,-0.218 -0.127,-0.253c-0.105,-0.034 -0.218,0.024 -0.253,0.127Z" style="fill:#030404;fill-rule:nonzero;"/><path d="M229.419,292.042l-0.329,-4.55l5.022,-5.97l0.047,-0.132l-0.431,-21.029c-0.002,-0.11 -0.094,-0.198 -0.204,-0.195c-0.11,0.001 -0.198,0.093 -0.196,0.203l0.429,20.954l-5.026,5.974l-0.046,0.143l0.335,4.631c0.008,0.11 0.104,0.193 0.214,0.185c0.11,-0.008 0.193,-0.104 0.185,-0.214Z" style="fill:#030404;fill-rule:nonzero;"/><path d="M209.928,256.616c-0.693,-1.027 -6.242,-7.609 -7.25,-8.296c-1.008,-0.686 -7.22,-2.83 -7.22,-2.83l0.858,-2.565l-7.543,-1.932l-16.747,-27.018l15.63,-23.221l-25.661,-4.842c-0,-0 -13.361,18.789 -14.083,25.161c-0.997,8.79 30.467,38.736 30.467,38.736c0.651,9.914 9.575,9.291 9.575,9.291c-0,0 4.058,6.661 5.319,7.74c1.838,1.571 4.447,-0.008 3.78,-1.53c0.403,0.479 0.732,0.858 0.922,1.051c1.812,1.837 5.389,0.034 4.033,-2.33c-0.214,-0.372 -1.271,-2.067 -2.519,-4.061c1.642,1.837 3.478,3.843 4.132,4.38c1.309,1.076 4.584,-0.138 3.725,-2.037c-0.194,-0.429 -1.367,-2.292 -2.696,-4.361c0.731,0.608 1.345,1.089 1.687,1.292c1.857,1.108 4.68,-1.009 3.591,-2.628Z" style="fill:#f69996;fill-rule:nonzero;"/><path d="M171.039,213.516c-0.027,-0.024 -2.117,-1.747 -6.77,-1.746c-1.395,-0 -3.02,0.154 -4.889,0.555c-0.108,0.023 -0.177,0.129 -0.154,0.237c0.023,0.108 0.13,0.177 0.238,0.154c1.843,-0.395 3.44,-0.546 4.805,-0.546c2.277,0 3.911,0.42 4.974,0.836c0.531,0.208 0.92,0.415 1.174,0.569c0.127,0.077 0.22,0.14 0.281,0.184l0.066,0.049l0.019,0.015l0.282,-0.026l-0.026,-0.281Z" style="fill:#030404;fill-rule:nonzero;"/><path d="M204.498,257.18c0,-0.001 -0.85,-1.45 -1.797,-2.99c-0.473,-0.77 -0.971,-1.562 -1.399,-2.21c-0.432,-0.65 -0.78,-1.142 -1.004,-1.355c-0.231,-0.213 -0.669,-0.456 -1.224,-0.733c-1.657,-0.821 -4.295,-1.844 -4.298,-1.845c-0.103,-0.04 -0.219,0.011 -0.259,0.114c-0.04,0.103 0.011,0.219 0.114,0.259c0.003,0.001 1.17,0.453 2.435,0.996c0.632,0.272 1.288,0.565 1.83,0.834c0.54,0.266 0.976,0.52 1.128,0.666c0.159,0.146 0.523,0.647 0.944,1.285c0.637,0.962 1.434,2.258 2.071,3.313c0.637,1.055 1.113,1.868 1.114,1.868c0.056,0.096 0.179,0.129 0.274,0.073c0.095,-0.056 0.127,-0.18 0.071,-0.275Z" style="fill:#030404;fill-rule:nonzero;"/><path d="M199.695,259.637c0,-0.001 -0.748,-1.569 -1.539,-3.173c-0.395,-0.804 -0.801,-1.616 -1.13,-2.246c-0.164,-0.316 -0.309,-0.586 -0.426,-0.789c-0.058,-0.102 -0.109,-0.186 -0.152,-0.253l-0.13,-0.164c-0.103,-0.087 -0.366,-0.273 -0.726,-0.522c-1.074,-0.743 -2.931,-1.981 -2.932,-1.982c-0.092,-0.061 -0.216,-0.036 -0.277,0.056c-0.061,0.092 -0.037,0.216 0.055,0.277c0.002,0.001 0.826,0.55 1.693,1.136c0.433,0.293 0.877,0.595 1.233,0.841c0.353,0.245 0.629,0.442 0.693,0.498l0.04,-0.046l-0.043,0.043l0.003,0.003l0.04,-0.046l-0.043,0.043c0.01,0.006 0.108,0.15 0.218,0.347c0.401,0.707 1.169,2.249 1.834,3.608c0.665,1.36 1.227,2.538 1.228,2.541c0.048,0.099 0.167,0.142 0.267,0.095c0.1,-0.048 0.142,-0.168 0.094,-0.267Z" style="fill:#030404;fill-rule:nonzero;"/><path d="M196.844,264.418c-0,-0 -0.994,-1.928 -2.078,-3.963c-0.542,-1.019 -1.106,-2.064 -1.581,-2.909c-0.478,-0.849 -0.852,-1.485 -1.056,-1.733c-0.396,-0.47 -1.2,-1.027 -1.919,-1.489c-0.718,-0.458 -1.343,-0.807 -1.345,-0.808c-0.097,-0.054 -0.218,-0.019 -0.272,0.077c-0.054,0.097 -0.019,0.219 0.077,0.272c0.001,0.001 0.618,0.345 1.324,0.796c0.705,0.448 1.504,1.016 1.827,1.408c0.155,0.184 0.546,0.835 1.015,1.672c0.709,1.262 1.622,2.978 2.358,4.378c0.736,1.399 1.293,2.48 1.295,2.483c0.05,0.098 0.171,0.136 0.269,0.086c0.098,-0.051 0.137,-0.172 0.086,-0.27Z" style="fill:#030404;fill-rule:nonzero;"/><path d="M335.653,200.668c0,-0 -5.613,-3.494 -7.672,-3.877c-2.058,-0.383 -12.209,-0.819 -12.209,-0.819l0.001,0.001c-2.656,-0.2 -4.619,0.026 -4.619,0.026l-38.005,5.84l-7.245,-11.379l-18.38,10.033c0,0 10.946,21.636 17.936,21.636c5.773,-0 47.87,-14.104 47.87,-14.104l0.02,-0.009l1.897,2.624c0,0 1.341,2.072 1.277,4.561c-0.064,2.489 3.83,3.038 4.787,0.356c0.734,-2.058 -0.482,-7.968 -1.089,-10.617l7.616,-3.408c4.787,0.048 7.815,-0.864 7.815,-0.864Z" style="fill:#f69996;fill-rule:nonzero;"/><path d="M237.727,163.346c0,0 6.792,0.688 11.109,2.475c4.317,1.786 20.691,29.175 20.691,29.175c0,0 -13.844,7.89 -24.413,10.718l-7.387,-42.368Z" style="fill:#502e8e;fill-rule:nonzero;"/><path d="M254.199,202.503c-3.04,1.28 -6.18,2.44 -9.08,3.21l-3.27,-18.77l6.786,-2.413l0.405,8.957l5.159,9.016Z" style="fill:#030404;fill-rule:nonzero;"/><path d="M195.024,158.824c0,0 -10.94,-4.242 -17.416,2.01c-6.475,6.252 -25.231,36.842 -25.231,36.842c7.145,6.549 23.222,13.099 34.301,13.992l7.232,-15.413l7.99,16.565l-6.876,27.503c0,-0 7.145,5.359 28.357,5.805c21.212,0.447 31.483,-6.922 31.483,-6.922l-9.601,-42.87c0,-0 4.019,-10.718 3.349,-13.397c-0.669,-2.679 -10.885,-19.593 -10.885,-19.593l-7.24,-1.006l-35.463,-3.516Z" style="fill:#502e8e;fill-rule:nonzero;"/><path d="M214.563,143.418l-7.908,16.188l-9.037,-0.524c-0,0 13.708,27.43 29.896,26.201c16.188,-1.228 5.838,-22.545 5.838,-22.545l-6.383,-1.246l1.884,-15.11" style="fill:#f69996;fill-rule:nonzero;"/><path d="M228.619,148.243l-1.27,10.2c-10.783,-2.95 -12.25,-12.72 -12.25,-12.72l13.52,2.52Z" style="fill:#030404;fill-rule:nonzero;"/><path d="M205.743,136.273c-0,0 11.372,20.401 26.56,17.702c14.93,-2.652 12.707,-36.123 2.691,-42.598c-10.708,-6.922 -38.182,1.674 -29.251,24.896Z" style="fill:#f69996;fill-rule:nonzero;"/><path d="M226.396,127.28c-4.404,5.074 -10.851,0.957 -10.851,0.957c-2.649,-3.398 -8.22,-2.347 -8.872,2.25c-1.006,7.086 7.038,14.675 7.038,14.675l-7.056,14.444l-11.631,-0.782c0,0 2.01,-7.097 6.287,-12.108c-1.468,-3.298 -13.452,-26.096 -0.383,-40.053c13.149,-14.042 32.553,-1.149 32.553,-1.149c0,0 4.149,-2.234 8.173,0.251c8.05,4.972 0.16,20.256 0.16,20.256c-0,-0 -0.464,-5.278 -3.665,-11.233c-3.2,-5.955 -7.349,7.418 -11.753,12.492Z" style="fill:#030404;fill-rule:nonzero;"/><path d="M193.91,196.255l3.061,-6.23l-0.522,11.494l-2.539,-5.264Z" style="fill:#030404;fill-rule:nonzero;"/><path d="M315.064,104.374l-50.564,-0c-4.623,-0 -8.37,-3.747 -8.37,-8.37l0,-17.478c0,-4.623 3.747,-8.37 8.37,-8.37l50.564,0c4.623,0 8.37,3.747 8.37,8.37l-0,17.478c-0,4.623 -3.747,8.37 -8.37,8.37Z" style="fill:#fff;fill-rule:nonzero;"/><path d="M315.064,104.624l-0,-0.5l-50.564,-0c-2.243,-0 -4.271,-0.908 -5.742,-2.378c-1.469,-1.471 -2.378,-3.499 -2.378,-5.742l0,-17.478c0,-2.243 0.909,-4.271 2.378,-5.742c1.471,-1.469 3.499,-2.378 5.742,-2.378l50.564,0c2.243,0 4.272,0.909 5.742,2.378c1.47,1.471 2.378,3.499 2.378,5.742l-0,17.478c-0,2.243 -0.908,4.271 -2.378,5.742c-1.47,1.47 -3.499,2.378 -5.742,2.378l-0,0.5c4.761,-0 8.62,-3.859 8.62,-8.62l-0,-17.478c-0,-4.761 -3.859,-8.62 -8.62,-8.62l-50.564,0c-4.761,0 -8.62,3.859 -8.62,8.62l0,17.478c0,4.761 3.859,8.62 8.62,8.62l50.564,-0Z" style="fill:#030404;fill-rule:nonzero;"/><path d="M270.315,101.57c0,0 1.272,20.021 -13.402,20.021c-0,0 25.271,6.946 25.271,-20.021" style="fill:#fff;fill-rule:nonzero;"/><path d="M270.065,101.586c0,0.001 0.028,0.427 0.028,1.165c0.001,2.13 -0.233,6.815 -2.005,10.932c-0.886,2.06 -2.152,3.974 -3.954,5.371c-1.803,1.396 -4.143,2.285 -7.221,2.287c-0.125,0 -0.231,0.092 -0.248,0.216c-0.017,0.124 0.061,0.241 0.181,0.275c0.013,0.003 2.953,0.811 6.845,0.812c3.774,-0.001 8.456,-0.761 12.211,-3.794c3.756,-3.033 6.536,-8.333 6.532,-17.28c-0,-0.138 -0.111,-0.25 -0.25,-0.25c-0.138,0 -0.25,0.112 -0.25,0.25c-0.003,8.851 -2.727,13.963 -6.346,16.892c-3.622,2.929 -8.186,3.682 -11.897,3.682c-1.911,0 -3.594,-0.199 -4.795,-0.398c-0.601,-0.1 -1.082,-0.199 -1.412,-0.274c-0.331,-0.074 -0.504,-0.122 -0.505,-0.122l-0.066,0.241l-0,0.25c3.174,0.001 5.64,-0.928 7.527,-2.392c2.833,-2.198 4.363,-5.571 5.193,-8.786c0.83,-3.217 0.959,-6.287 0.96,-7.912c-0,-0.751 -0.028,-1.193 -0.029,-1.197c-0.008,-0.138 -0.127,-0.243 -0.265,-0.234c-0.138,0.009 -0.242,0.128 -0.234,0.266Z" style="fill:#030404;fill-rule:nonzero;"/><path d="M261.368,87.099l0.009,-0.011c0.103,-0.138 1.174,-1.543 2.668,-2.875c0.746,-0.666 1.596,-1.312 2.46,-1.775c0.865,-0.466 1.732,-0.739 2.514,-0.737c0.137,-0 0.273,0.008 0.407,0.025c0.332,0.042 0.53,0.132 0.684,0.244c0.223,0.166 0.407,0.44 0.545,0.932c0.134,0.484 0.194,1.147 0.193,1.901c0.003,1.542 -0.236,3.437 -0.239,5.222c0.008,1.385 0.127,2.735 0.791,3.89c0.332,0.573 0.826,1.08 1.465,1.412c0.638,0.335 1.394,0.494 2.247,0.493l0.033,0c0.751,-0.003 1.459,-0.216 2.102,-0.545c1.127,-0.58 2.094,-1.499 3.019,-2.525c1.38,-1.541 2.663,-3.355 3.899,-4.734c0.615,-0.69 1.216,-1.265 1.766,-1.64c0.554,-0.379 1.025,-0.543 1.433,-0.542l0.122,0.005c0.412,0.033 0.657,0.127 0.827,0.233c0.149,0.095 0.256,0.205 0.362,0.37c0.185,0.284 0.33,0.756 0.443,1.333c0.186,0.863 0.278,1.93 0.835,2.943c0.28,0.504 0.715,0.987 1.309,1.305c0.594,0.322 1.309,0.476 2.139,0.475c0.087,-0 0.176,-0.001 0.266,-0.005c0.825,-0.03 1.608,-0.262 2.336,-0.615c1.275,-0.621 2.405,-1.602 3.476,-2.699c1.601,-1.647 3.074,-3.585 4.447,-5.071c0.683,-0.742 1.34,-1.369 1.933,-1.782c0.595,-0.42 1.098,-0.605 1.487,-0.609l0.033,-0.001c0.291,0.003 0.507,0.068 0.744,0.205c0.41,0.234 0.867,0.769 1.319,1.508c0.688,1.101 1.351,2.587 2.33,3.875c0.492,0.643 1.076,1.244 1.815,1.692c0.736,0.448 1.63,0.722 2.63,0.719c0.479,-0 0.981,-0.06 1.507,-0.181c0.539,-0.124 0.874,-0.661 0.75,-1.2c-0.124,-0.538 -0.661,-0.873 -1.199,-0.749c-0.396,0.091 -0.746,0.13 -1.058,0.13c-0.497,-0.001 -0.898,-0.095 -1.263,-0.257c-0.634,-0.281 -1.186,-0.806 -1.705,-1.518c-0.782,-1.064 -1.425,-2.493 -2.22,-3.745c-0.403,-0.625 -0.85,-1.217 -1.442,-1.688c-0.584,-0.47 -1.354,-0.796 -2.208,-0.791l-0.073,0.001c-0.728,0.015 -1.405,0.257 -2.025,0.608c-1.084,0.62 -2.055,1.578 -3.035,2.657c-1.461,1.619 -2.926,3.533 -4.411,5.016c-0.741,0.742 -1.483,1.371 -2.199,1.804c-0.718,0.435 -1.394,0.669 -2.043,0.693l-0.192,0.003c-0.514,-0 -0.857,-0.082 -1.089,-0.185c-0.203,-0.093 -0.334,-0.198 -0.455,-0.34c-0.208,-0.243 -0.376,-0.651 -0.501,-1.192c-0.201,-0.81 -0.274,-1.845 -0.702,-2.858c-0.217,-0.504 -0.553,-1.017 -1.072,-1.404c-0.516,-0.388 -1.181,-0.617 -1.939,-0.674c-0.093,-0.007 -0.186,-0.011 -0.279,-0.011c-0.721,0 -1.397,0.219 -2.005,0.549c-1.066,0.584 -1.981,1.497 -2.877,2.517c-1.334,1.532 -2.615,3.337 -3.885,4.713c-0.632,0.687 -1.26,1.262 -1.848,1.642c-0.592,0.383 -1.12,0.563 -1.613,0.565l-0.024,0c-0.612,0 -1.026,-0.111 -1.319,-0.265c-0.221,-0.116 -0.384,-0.258 -0.53,-0.445c-0.217,-0.28 -0.389,-0.686 -0.499,-1.216c-0.11,-0.529 -0.155,-1.17 -0.155,-1.869c-0.002,-1.608 0.236,-3.497 0.239,-5.222c-0.005,-1.133 -0.092,-2.211 -0.536,-3.175c-0.223,-0.478 -0.555,-0.928 -1.011,-1.265c-0.455,-0.338 -1.017,-0.548 -1.63,-0.622c-0.218,-0.027 -0.436,-0.04 -0.652,-0.04c-1.278,0.002 -2.478,0.436 -3.562,1.031c-1.626,0.898 -3.023,2.183 -4.04,3.246c-1.014,1.064 -1.639,1.91 -1.657,1.933c-0.328,0.444 -0.233,1.07 0.211,1.398c0.444,0.329 1.069,0.234 1.397,-0.21Z" style="fill:#030404;fill-rule:nonzero;"/><path d="M493.332,307.343l-27.063,-7.746l-19.813,-27.631c-0,0 -0.182,-10.08 -0.565,-12.506c-0.383,-2.426 -1.905,-8.164 -2.721,-10.75c-0.822,-2.602 -3.55,-0.448 -4.221,1.515c-0.67,1.963 -0.335,7.372 -0.335,7.372c0,0 -11.123,-18.055 -12.016,-19.244c-1.292,-1.724 -3.781,-1.006 -4.117,1.101c-0.335,2.106 6.75,16.324 6.75,16.324c-0,-0 -8.102,5.888 -8.282,6.894c-0.179,1.005 1.628,6.064 2.586,8.425c0.399,0.985 2.968,0.096 2.968,0.096c-0,-0 2.011,3.656 5.122,5.419l3.111,0.769c4.133,10.423 18.057,40.337 24.018,43.885c4.811,2.864 33.334,10.237 33.334,10.237l1.244,-24.16Z" style="fill:#f37968;fill-rule:nonzero;"/><path d="M427.54,260.887c0.001,0.001 0.141,0.381 0.352,0.992c0.317,0.916 0.793,2.344 1.189,3.758c0.396,1.412 0.709,2.82 0.707,3.645l-0.005,0.166c-0.078,1.291 -0.976,2.035 -1.836,2.035c-0.711,-0.006 -1.442,-0.489 -1.74,-1.784l-0.006,-0.021l-2.298,-6.958c-0.038,-0.115 -0.163,-0.178 -0.278,-0.14c-0.116,0.038 -0.178,0.163 -0.14,0.279l2.298,6.957l0.209,-0.069l-0.215,0.048c0.311,1.433 1.233,2.134 2.17,2.129c1.117,-0 2.191,-0.959 2.276,-2.451l0.005,-0.191c-0.003,-1.225 -0.573,-3.337 -1.14,-5.174c-0.567,-1.833 -1.133,-3.371 -1.134,-3.373c-0.042,-0.115 -0.169,-0.172 -0.283,-0.131c-0.114,0.042 -0.173,0.17 -0.131,0.283Z" style="fill:#030404;fill-rule:nonzero;"/><path d="M431.746,258.711c0,0.001 0.13,0.387 0.326,1.012c0.588,1.87 1.762,5.892 1.757,7.81c0,0.213 -0.014,0.398 -0.043,0.544c-0.199,1.038 -1.044,1.756 -1.85,1.751c-0.71,-0.004 -1.478,-0.524 -1.865,-2.086c-0.028,-0.118 -0.147,-0.191 -0.266,-0.162c-0.118,0.029 -0.19,0.148 -0.162,0.266c0.393,1.667 1.331,2.426 2.293,2.422c1.063,-0.005 2.044,-0.887 2.283,-2.107c0.036,-0.186 0.051,-0.396 0.051,-0.628c-0.002,-1.375 -0.531,-3.597 -1.056,-5.498c-0.525,-1.898 -1.05,-3.462 -1.051,-3.465c-0.038,-0.115 -0.163,-0.177 -0.279,-0.138c-0.115,0.038 -0.177,0.163 -0.138,0.279Z" style="fill:#030404;fill-rule:nonzero;"/><path d="M465.811,299.909l-3.548,11.872c-0.039,0.132 0.036,0.272 0.168,0.311c0.132,0.04 0.272,-0.035 0.311,-0.168l3.548,-11.872c0.039,-0.132 -0.036,-0.272 -0.168,-0.311c-0.132,-0.04 -0.272,0.035 -0.311,0.168Z" style="fill:#030404;fill-rule:nonzero;"/><path d="M562.246,317.035c-14.196,-3.532 -28.37,-6.5 -28.37,-6.5l-22.161,-1.962l-7.023,-0.564l-25.53,-5.017c-3.951,4.794 -6.628,21.043 -6.181,28.511l20.768,4.227l3.785,37.56l-16.875,35.288l81.659,1.532c-0,0 -1.767,-10.851 -3.628,-27.285c10.153,-27.226 3.299,-57.761 3.556,-65.79Z" style="fill:#faa225;fill-rule:nonzero;"/><path d="M493.749,335.73l-0.991,-9.493l-5.19,8.235l6.181,1.258Z" style="fill:#030404;fill-rule:nonzero;"/><path d="M550.185,348.843l4.02,28.641l10.744,-3.917l-14.764,-24.724Z" style="fill:#030404;fill-rule:nonzero;"/><path d="M508.001,266.791c0,0 -3.694,2.005 -3.673,7.051c0.015,3.867 4.029,6.043 4.029,6.043l2.547,-10.961" style="fill:#030404;fill-rule:nonzero;"/><path d="M509.461,270.151c-4.044,8.183 -5.568,32.293 4.293,34.869c0.21,0.055 1.855,0.042 3.392,-0.212l-2.267,8.32c0,0 3.003,4.084 9.673,3.743c6.814,-0.349 12.19,-5.724 12.19,-5.724l-1.008,-17.465c1.04,-0.481 2.249,-1.1 2.782,-2.918c9.288,-31.671 -23.555,-31.74 -29.055,-20.613Z" style="fill:#f37968;fill-rule:nonzero;"/><path d="M481.82,447.921c-1.682,-5.605 -6.18,-9.669 -6.18,-9.669l-0.766,-4.865c-0,0 -2.359,-0.613 -5.525,-0.991c-0.753,-0.646 -1.613,-1.37 -2.314,-1.925c-1.627,-1.288 -9.957,-0.196 -13.787,1.985l-3.702,0.297c-0,-0 -9.673,-3.457 -16.947,-0.989c-12.51,4.244 -13.213,25.351 -4.34,25.351l52.467,0c0,0 2.722,-3.769 1.094,-9.194Z" style="fill:#502e8e;fill-rule:nonzero;"/><path d="M429.635,443.178c9.018,4.911 40.245,6.327 40.245,6.327c-0.293,2.701 -0.176,5.263 0.566,7.612l100.368,0c0,0 24.778,-13.939 16.581,-36.551c-7.632,-21.051 -40.923,-12.639 -40.923,-12.639c-9.871,-0.668 -30.985,0.975 -30.985,0.975c-0,0 -66.709,-9.561 -77.362,-9.08c-22.533,1.016 -27.831,32.824 -8.49,43.356Z" style="fill:#191b4b;fill-rule:nonzero;"/><path d="M514.479,433.742l-14.675,-2.764l-5.228,20.755l19.621,3.644c0,-0 10.248,-11.868 0.282,-21.635Z" style="fill:#f37968;fill-rule:nonzero;"/><path d="M554.869,431.764c-7.274,-2.468 -16.947,0.989 -16.947,0.989l-3.702,-0.297c-3.83,-2.181 -12.16,-3.273 -13.788,-1.985c-0.7,0.555 -1.56,1.279 -2.313,1.925c-3.166,0.378 -5.525,0.991 -5.525,0.991l-0.766,4.865c0,-0 -4.498,4.064 -6.18,9.669c-1.627,5.425 1.094,9.194 1.094,9.194l52.467,0c8.873,0 8.17,-21.107 -4.34,-25.351Z" style="fill:#502e8e;fill-rule:nonzero;"/><path d="M499.709,429.991c-0.018,-0.009 -23.407,-14.302 -58.39,-17.82c-0.121,-0.012 -0.229,0.077 -0.241,0.198c-0.012,0.121 0.076,0.229 0.197,0.241c17.442,1.753 31.997,6.194 42.19,10.197c5.096,2.001 9.102,3.893 11.832,5.283c1.366,0.695 2.412,1.265 3.117,1.661c0.704,0.396 1.064,0.616 1.065,0.616c0.104,0.064 0.239,0.031 0.303,-0.073c0.063,-0.103 0.03,-0.239 -0.073,-0.302l0,-0.001Z" style="fill:#030404;fill-rule:nonzero;"/><path d="M560.558,412.529c-0.002,-0 -0.76,-0.024 -2.177,-0.024c-8.115,-0 -37.845,0.791 -71.083,11.448c-0.116,0.037 -0.179,0.162 -0.142,0.277c0.037,0.116 0.161,0.18 0.277,0.143c33.171,-10.636 62.862,-11.428 70.948,-11.428c1.412,-0 2.161,0.025 2.163,0.024c0.122,0.004 0.223,-0.091 0.227,-0.213c0.004,-0.121 -0.091,-0.223 -0.213,-0.227Z" style="fill:#030404;fill-rule:nonzero;"/><path d="M493.449,414.851l40.801,-0c0,-2.142 -1.231,-4.929 -6.223,-4.929l-34.578,-0l0,4.929Z" style="fill:#030404;fill-rule:nonzero;"/><path d="M448.868,414.851l68.091,-0c1.322,-0 2.291,-1.246 1.966,-2.529l-12.081,-47.511c-0.368,-1.447 -1.671,-2.46 -3.164,-2.46l-68.091,-0c-1.323,-0 -2.292,1.247 -1.966,2.529l12.081,47.511c0.368,1.447 1.671,2.46 3.164,2.46Z" style="fill:#030404;fill-rule:nonzero;"/><path d="M445.736,414.851l68.091,-0c1.323,-0 2.292,-1.246 1.966,-2.529l-12.081,-47.511c-0.368,-1.447 -1.671,-2.46 -3.164,-2.46l-68.091,-0c-1.323,-0 -2.292,1.247 -1.966,2.529l12.081,47.511c0.368,1.447 1.671,2.46 3.164,2.46Z" style="fill:#527abd;fill-rule:nonzero;"/><path d="M478.053,388.857c0,2.071 -2.961,3.75 -6.613,3.75c-3.653,0 -6.614,-1.679 -6.614,-3.75c-0,-2.071 2.961,-3.75 6.614,-3.75c3.652,0 6.613,1.679 6.613,3.75Z" style="fill:#fff;fill-rule:nonzero;"/><path d="M581.869,349.543c-8.99,3.37 -20.28,5.31 -25.77,6.12c3.03,8.4 5.82,15.52 5.82,15.52l-35.17,12.67c0,-0 -7.5,-10.24 -9.13,-12.36c-0.88,-1.13 -7.11,-2.84 -7.87,-3.01c-0.75,-0.16 -9.33,0.37 -10.3,0.38c-1.034,0.009 -1.485,1.716 -1.018,2.983c-0.737,-0.009 -2.259,-0.011 -2.562,0.157c-0.43,0.24 -0.824,2.121 -0.031,3.304c1.069,1.595 5.551,1.476 5.551,1.476c-1.48,0.01 -2.914,0.012 -3.254,0.042c-1.38,0.11 -1.786,3.188 0.074,4.048c1.32,0.61 5.59,1.23 7.95,1.54c-2.933,2.037 -5.653,2.949 -7.305,4.59c-1.248,1.239 -0.125,2.972 2.074,3.192c3.511,0.351 6.798,-1.149 9.851,-2.202c0.94,3.2 2.35,6.62 4.28,7.96c3.949,2.74 8.99,1.23 9.22,1.16c0.62,0.03 26.07,-1.36 43.88,-3.88c9.64,-1.37 17.67,-5.11 19.32,-14.42c1.1,-6.17 -1.8,-17.75 -5.61,-29.27Z" style="fill:#f37968;fill-rule:nonzero;"/><path d="M501.939,377.075c0.002,-0 1.016,0.048 2.127,0.113c1.107,0.065 2.33,0.152 2.674,0.218c0.764,0.143 4.255,0.813 4.26,0.814c0.135,0.026 0.266,-0.063 0.292,-0.199c0.026,-0.135 -0.063,-0.266 -0.198,-0.292c-0.001,-0 -3.494,-0.671 -4.262,-0.814c-0.421,-0.078 -1.616,-0.159 -2.736,-0.226c-1.115,-0.066 -2.133,-0.114 -2.133,-0.114c-0.138,-0.006 -0.255,0.101 -0.262,0.238c-0.006,0.138 0.1,0.255 0.238,0.262Z" style="fill:#030404;fill-rule:nonzero;"/><path d="M499.74,372.096c0.003,0 1.388,0.048 2.936,0.114c1.547,0.065 3.264,0.15 3.891,0.22c0.615,0.068 1.799,0.344 2.813,0.602c1.016,0.258 1.869,0.498 1.871,0.499c0.133,0.037 0.271,-0.04 0.309,-0.173c0.037,-0.133 -0.041,-0.271 -0.173,-0.309c-0.009,-0.001 -3.423,-0.965 -4.765,-1.116c-1.32,-0.146 -6.859,-0.336 -6.864,-0.336c-0.139,-0.005 -0.254,0.103 -0.259,0.241c-0.005,0.138 0.103,0.254 0.241,0.258Z" style="fill:#030404;fill-rule:nonzero;"/><path d="M506.567,382.664l3.738,0.41c0.137,0.015 0.261,-0.084 0.276,-0.221c0.015,-0.138 -0.084,-0.261 -0.222,-0.276l-3.737,-0.41c-0.137,-0.015 -0.261,0.084 -0.276,0.222c-0.015,0.137 0.084,0.26 0.221,0.275Z" style="fill:#030404;fill-rule:nonzero;"/><path d="M562.387,371.201c0.001,0 0.125,-0.036 0.361,-0.092c0.709,-0.168 2.395,-0.508 4.444,-0.507c3.329,0.002 7.573,0.887 10.239,4.785c0.078,0.113 0.233,0.143 0.347,0.065c0.114,-0.078 0.143,-0.234 0.066,-0.348c-2.799,-4.088 -7.248,-5.005 -10.652,-5.002c-2.805,0 -4.929,0.615 -4.944,0.619c-0.132,0.038 -0.209,0.177 -0.17,0.309c0.038,0.133 0.177,0.209 0.31,0.171l-0.001,0Z" style="fill:#030404;fill-rule:nonzero;"/><path d="M543.949,287.593c-0,0 6.468,-3.353 7.03,-11.215c0.45,-6.297 -5.285,-7.702 -5.285,-7.702c-0,-0 1.406,-5.346 -2.421,-9.479c-6.367,-6.877 -15.286,-0.864 -15.286,-0.864c-0,-0 -3.953,-10.171 -14.448,-8.039c-7.196,1.461 -11.881,9.26 -4.773,21.569c-0,0 3.406,1.494 7.64,1.985c7.758,0.9 13.689,-0.59 13.689,-0.59c-1.424,7.088 1.766,11.344 8.538,13.402l5.316,0.933Z" style="fill:#030404;fill-rule:nonzero;"/><path d="M517.146,304.808c-0,-0 0.129,-0.029 0.364,-0.093c1.665,-0.454 8.644,-2.644 12.588,-8.35c0,5.489 -4.596,13.021 -14.37,13.646" style="fill:#030404;fill-rule:nonzero;"/><path d="M542.434,280.032c5.734,3.148 -0.994,14.546 -5.829,14.124c-8.641,-0.753 -1.916,-18.376 5.829,-14.124Z" style="fill:#f37968;fill-rule:nonzero;"/><path d="M562.246,317.035c-0,0 5.863,1.064 9.501,6.809c3.638,5.745 11.968,29.106 11.968,29.106c-6.542,5.872 -17.068,8.361 -28.532,10.053c-0,0 -9.287,-23.266 -8.33,-31.5c0.958,-8.234 5.222,-16.201 15.393,-14.468Z" style="fill:#faa225;fill-rule:nonzero;"/><path d="M510.904,74.726c-5.107,0 -9.247,-4.14 -9.248,-9.247c0.001,-5.108 4.141,-9.248 9.248,-9.248c5.108,-0 9.247,4.14 9.247,9.248c0,5.107 -4.139,9.247 -9.247,9.247Zm-0,-17.495c-2.279,-0 -4.338,0.922 -5.832,2.415c-1.493,1.495 -2.415,3.553 -2.416,5.833c0.001,2.279 0.923,4.338 2.416,5.832c1.494,1.493 3.553,2.415 5.832,2.415c2.28,0 4.338,-0.922 5.833,-2.415c1.492,-1.494 2.414,-3.553 2.414,-5.832c0,-2.28 -0.922,-4.338 -2.414,-5.833c-1.495,-1.493 -3.553,-2.415 -5.833,-2.415Z" style="fill:#dfdeef;fill-rule:nonzero;"/><path d="M602.766,68.627l-1,0c-0,2.972 -1.203,5.657 -3.15,7.605c-1.948,1.947 -4.634,3.15 -7.606,3.15c-2.971,-0 -5.657,-1.203 -7.605,-3.15c-1.947,-1.948 -3.15,-4.633 -3.15,-7.605c0,-2.972 1.203,-5.657 3.15,-7.605c1.948,-1.948 4.634,-3.15 7.605,-3.15c2.972,0 5.658,1.202 7.606,3.15c1.947,1.948 3.15,4.633 3.15,7.605l1,0c-0.001,-6.493 -5.263,-11.755 -11.756,-11.755c-6.492,0 -11.755,5.262 -11.755,11.755c0,6.492 5.263,11.755 11.755,11.755c6.493,-0 11.755,-5.263 11.756,-11.755Z" style="fill:#8c90c7;fill-rule:nonzero;"/><path d="M155.649,263.643c0,5.445 -4.414,9.859 -9.859,9.859c-5.445,-0 -9.858,-4.414 -9.858,-9.859c0,-5.444 4.413,-9.858 9.858,-9.858c5.445,0 9.859,4.414 9.859,9.858Z" style="fill:#8c90c7;fill-rule:nonzero;"/><path d="M601.569,83.08c-2.539,-0 -4.712,-1.569 -5.603,-3.791c3.299,-1.535 5.766,-4.557 6.542,-8.204c2.886,0.451 5.095,2.948 5.095,5.962c0,3.332 -2.702,6.033 -6.034,6.033Zm-5.898,-4.757c-0.089,-0.411 -0.135,-0.839 -0.135,-1.276c0,-3.31 2.664,-5.997 5.964,-6.034c-0.455,2.012 -1.475,3.809 -2.884,5.219c-0.853,0.853 -1.847,1.562 -2.945,2.091Z" style="fill:#dfdeef;fill-rule:nonzero;"/><path d="M595.966,79.289c-0.124,-0.31 -0.223,-0.633 -0.295,-0.966c1.098,-0.529 2.092,-1.238 2.945,-2.091c1.409,-1.41 2.429,-3.207 2.884,-5.219l0.069,0c0.32,0 0.633,0.025 0.939,0.072c-0.776,3.647 -3.243,6.669 -6.542,8.204Z" style="fill:#8c90c7;fill-rule:nonzero;"/><path d="M500.661,56.621c-1.608,0 -2.912,-1.304 -2.912,-2.913c-0,-1.609 1.304,-2.913 2.912,-2.913c1.609,0 2.913,1.304 2.913,2.913c0,1.609 -1.304,2.913 -2.913,2.913Z" style="fill:#dfdeef;fill-rule:nonzero;"/><path d="M218.738,71.962l-1,0c0,2.933 -1.188,5.585 -3.11,7.508c-1.924,1.922 -4.575,3.11 -7.509,3.11c-2.934,-0 -5.585,-1.188 -7.508,-3.11c-1.923,-1.923 -3.11,-4.575 -3.111,-7.508c0.001,-2.934 1.188,-5.586 3.111,-7.509c1.923,-1.922 4.574,-3.11 7.508,-3.11c2.934,-0 5.585,1.188 7.509,3.11c1.922,1.923 3.11,4.575 3.11,7.509l1,0c0,-6.417 -5.202,-11.619 -11.619,-11.619c-6.417,-0 -11.618,5.202 -11.619,11.619c0.001,6.416 5.202,11.618 11.619,11.618c6.417,-0 11.619,-5.202 11.619,-11.618Z" style="fill:#8c90c7;fill-rule:nonzero;"/><path d="M608.177,388.857c0,3.65 -2.959,6.608 -6.608,6.608c-3.649,-0 -6.607,-2.958 -6.607,-6.608c-0,-3.649 2.958,-6.607 6.607,-6.607c3.649,0 6.608,2.958 6.608,6.607Z" style="fill:#8c90c7;fill-rule:nonzero;"/><path d="M168.114,257.623c-0,2.072 -1.68,3.752 -3.752,3.752c-2.073,0 -3.753,-1.68 -3.753,-3.752c-0,-2.072 1.68,-3.752 3.753,-3.752c2.072,0 3.752,1.68 3.752,3.752Z" style="fill:#8c90c7;fill-rule:nonzero;"/><path d="M616.97,375.245c-0,2.073 -1.68,3.753 -3.752,3.753c-2.072,0 -3.752,-1.68 -3.752,-3.753c0,-2.072 1.68,-3.752 3.752,-3.752c2.072,-0 3.752,1.68 3.752,3.752Z" style="fill:#8c90c7;fill-rule:nonzero;"/><path d="M231.639,44.992c0,2.072 -1.68,3.752 -3.753,3.752c-2.072,-0 -3.752,-1.68 -3.752,-3.752c0,-2.073 1.68,-3.753 3.752,-3.753c2.073,0 3.753,1.68 3.753,3.753Z" style="fill:#8c90c7;fill-rule:nonzero;"/><path d="M115.525,398.242c-4.141,-0 -7.498,-3.357 -7.498,-7.499c0,-4.141 3.357,-7.498 7.498,-7.498c4.141,0 7.499,3.357 7.499,7.498c0,4.142 -3.358,7.499 -7.499,7.499Z" style="fill:#dfdeef;fill-rule:nonzero;"/><path d="M192.247,76.315c-9.192,0 -16.644,-7.451 -16.644,-16.643c-0,-9.192 7.452,-16.643 16.644,-16.643c9.191,-0 16.642,7.451 16.642,16.643c0,0.269 -0.006,0.537 -0.019,0.802c-0.571,-0.086 -1.156,-0.131 -1.751,-0.131c-6.417,-0 -11.618,5.202 -11.619,11.619c0.001,1.363 0.236,2.673 0.667,3.888c-1.257,0.304 -2.57,0.465 -3.92,0.465Zm4.888,-0.73c-0.411,-1.13 -0.634,-2.35 -0.635,-3.623c0.001,-2.934 1.188,-5.586 3.111,-7.509c1.923,-1.922 4.574,-3.11 7.508,-3.11c0.57,-0 1.129,0.045 1.674,0.131c-0.72,6.691 -5.405,12.193 -11.658,14.111Z" style="fill:#dfdeef;fill-rule:nonzero;"/><path d="M196.167,75.85c-0.431,-1.215 -0.666,-2.525 -0.667,-3.888c0.001,-6.417 5.202,-11.619 11.619,-11.619c0.595,-0 1.18,0.045 1.751,0.131c-0.016,0.336 -0.042,0.67 -0.077,1c-0.545,-0.086 -1.104,-0.131 -1.674,-0.131c-2.934,-0 -5.585,1.188 -7.508,3.11c-1.923,1.923 -3.11,4.575 -3.111,7.509c0.001,1.273 0.224,2.493 0.635,3.623c-0.319,0.098 -0.641,0.186 -0.968,0.265Z" style="fill:#8c90c7;fill-rule:nonzero;"/><path d="M337.766,442.646c-4.966,-0 -8.992,-4.025 -8.992,-8.991c-0,-4.966 4.026,-8.991 8.992,-8.991c4.965,0 8.991,4.025 8.991,8.991c-0,4.966 -4.026,8.991 -8.991,8.991Z" style="fill:#dfdeef;fill-rule:nonzero;"/><path d="M470.675,188.248c-1.289,-0 -2.335,-1.046 -2.335,-2.336c-0,-1.29 1.046,-2.335 2.335,-2.335c1.29,-0 2.336,1.045 2.336,2.335c-0,1.29 -1.046,2.336 -2.336,2.336Z" style="fill:#dfdeef;fill-rule:nonzero;"/><path d="M560.993,227.334l-56.877,0c-2.115,0 -3.829,-1.715 -3.829,-3.83c-0,-2.115 1.714,-3.83 3.829,-3.83l56.877,0c2.116,0 3.83,1.715 3.83,3.83c-0,2.115 -1.714,3.83 -3.83,3.83Z" style="fill:#dfdeef;fill-rule:nonzero;"/><path d="M182.62,330.317l-0,-0.5l-78.243,0c-1.977,-0.003 -3.576,-1.603 -3.58,-3.58c0.004,-1.977 1.603,-3.576 3.58,-3.579l78.243,0c1.977,0.003 3.576,1.602 3.579,3.579c-0.003,1.977 -1.602,3.577 -3.579,3.58l-0,0.5c2.253,0 4.079,-1.826 4.079,-4.08c0,-2.253 -1.826,-4.079 -4.079,-4.079l-78.243,0c-2.253,0 -4.08,1.826 -4.08,4.079c-0,2.254 1.827,4.08 4.08,4.08l78.243,0Z" style="fill:#09090c;fill-rule:nonzero;"/><path d="M401.609,457.115c0,0 -17.809,-12.72 -38.681,-8.32c0,-0 19.753,-15.324 44.153,-3.068c-0,0 -7.196,-10.022 -19.068,-17.266c0,-0 14.17,2.521 24.511,16.691c-0,0 -1.851,-16.691 -18.83,-42.829c0,-0 33.957,16.589 36.734,54.794" style="fill:#00b9c2;fill-rule:nonzero;"/><path d="M603.311,457.117c-0,0 5.362,-22.231 22.213,-35.832c-0,0 0.255,14.484 -4.596,29.038c-0,0 6.638,-6.924 15.319,-11.122c0,0 -3.12,10.664 -8.326,17.914" style="fill:#00b9c2;fill-rule:nonzero;"/><path d="M493.196,176.365l-82.689,-0c-4.591,-0 -8.313,-3.722 -8.313,-8.312l0,-43.758c0,-4.591 3.722,-8.313 8.313,-8.313l82.689,-0c4.591,-0 8.313,3.722 8.313,8.313l0,43.758c0,4.59 -3.722,8.312 -8.313,8.312Z" style="fill:#fff;fill-rule:nonzero;"/><path d="M493.196,176.615l0,-0.5l-82.689,-0c-2.228,-0 -4.242,-0.902 -5.702,-2.361c-1.459,-1.46 -2.361,-3.474 -2.361,-5.701l0,-43.758c0,-2.227 0.902,-4.242 2.361,-5.701c1.46,-1.46 3.474,-2.362 5.702,-2.362l82.689,-0c2.228,-0 4.242,0.902 5.701,2.362c1.46,1.459 2.362,3.474 2.362,5.701l0,43.758c0,2.227 -0.902,4.241 -2.362,5.701c-1.459,1.459 -3.473,2.361 -5.701,2.361l0,0.5c4.729,-0 8.563,-3.833 8.563,-8.562l0,-43.758c0,-4.729 -3.834,-8.563 -8.563,-8.563l-82.689,-0c-4.73,-0 -8.563,3.834 -8.563,8.563l0,43.758c0,4.729 3.833,8.562 8.563,8.562l82.689,-0Z" style="fill:#09090c;fill-rule:nonzero;"/><path d="M446.196,157.249l-29.745,-0c-2.186,-0 -3.958,-1.772 -3.958,-3.958l0,-17.234c0,-2.185 1.772,-3.957 3.958,-3.957l29.745,0c2.185,0 3.957,1.772 3.957,3.957l0,17.234c0,2.186 -1.772,3.958 -3.957,3.958Z" style="fill:#fff;fill-rule:nonzero;"/><path d="M446.196,157.749l0,-1l-29.745,-0c-1.909,-0.004 -3.454,-1.548 -3.458,-3.458l0,-17.234c0.004,-1.909 1.549,-3.454 3.458,-3.457l29.745,0c1.909,0.003 3.454,1.548 3.457,3.457l0,17.234c-0.003,1.91 -1.548,3.454 -3.457,3.458l0,1c2.461,-0.001 4.457,-1.996 4.457,-4.458l0,-17.234c0,-2.462 -1.996,-4.457 -4.457,-4.457l-29.745,0c-2.462,0 -4.457,1.995 -4.458,4.457l0,17.234c0.001,2.462 1.996,4.457 4.458,4.458l29.745,-0Z" style="fill:#09090c;fill-rule:nonzero;"/><path d="M412.493,136.057l18.83,12.383l18.83,-12.383" style="fill:#fff;fill-rule:nonzero;"/><path d="M412.219,136.475l18.829,12.383c0.167,0.109 0.384,0.109 0.55,0l18.83,-12.383l-0.55,-0.835l-18.555,12.202l-18.555,-12.202l-0.549,0.835Z" style="fill:#09090c;fill-rule:nonzero;"/><path d="M412.493,153.291l13.639,-8.265" style="fill:none;fill-rule:nonzero;"/><path d="M412.753,153.719l13.638,-8.265l-0.519,-0.855l-13.638,8.265" style="fill:#09090c;fill-rule:nonzero;"/><path d="M450.153,153.291l-13.638,-8.265" style="fill:none;fill-rule:nonzero;"/><path d="M450.412,152.864l-13.638,-8.265l-0.518,0.855l13.638,8.265" style="fill:#09090c;fill-rule:nonzero;"/><path d="M457.135,134.025l37.921,-0c0.552,-0 1,-0.448 1,-1c-0,-0.553 -0.448,-1 -1,-1l-37.921,-0c-0.553,-0 -1,0.447 -1,1c0,0.552 0.447,1 1,1Z" style="fill:#09090c;fill-rule:nonzero;"/><path d="M484.811,141.542l10.245,-0c0.552,-0 1,-0.448 1,-1c-0,-0.553 -0.448,-1 -1,-1l-10.245,-0c-0.552,-0 -1,0.447 -1,1c0,0.552 0.448,1 1,1Z" style="fill:#09090c;fill-rule:nonzero;"/><path d="M457.135,141.542l22.41,-0c0.552,-0 1,-0.448 1,-1c0,-0.553 -0.448,-1 -1,-1l-22.41,-0c-0.553,-0 -1,0.447 -1,1c0,0.552 0.447,1 1,1Z" style="fill:#09090c;fill-rule:nonzero;"/><path d="M457.135,149.059l37.921,-0c0.552,-0 1,-0.448 1,-1c-0,-0.553 -0.448,-1 -1,-1l-37.921,-0c-0.553,-0 -1,0.447 -1,1c0,0.552 0.447,1 1,1Z" style="fill:#09090c;fill-rule:nonzero;"/><path d="M457.135,156.576l37.921,-0c0.552,-0 1,-0.448 1,-1c-0,-0.553 -0.448,-1 -1,-1l-37.921,-0c-0.553,-0 -1,0.447 -1,1c0,0.552 0.447,1 1,1Z" style="fill:#09090c;fill-rule:nonzero;"/><path d="M426.885,164.093l68.171,-0c0.552,-0 1,-0.448 1,-1c-0,-0.552 -0.448,-1 -1,-1l-68.171,-0c-0.552,-0 -1,0.448 -1,1c0,0.552 0.448,1 1,1Z" style="fill:#09090c;fill-rule:nonzero;"/><path d="M629.696,261.36l-44.997,0c-3.9,0 -7.062,-3.163 -7.062,-7.063l0,-25.111c0,-3.9 3.162,-7.061 7.062,-7.061l44.997,-0c3.9,-0 7.062,3.161 7.062,7.061l-0,25.111c-0,3.9 -3.162,7.063 -7.062,7.063Z" style="fill:#fff;fill-rule:nonzero;"/><path d="M629.696,261.61l-0,-0.5l-44.997,0c-1.882,0 -3.583,-0.763 -4.817,-1.995c-1.233,-1.235 -1.995,-2.936 -1.995,-4.818l0,-25.111c0,-1.881 0.762,-3.583 1.995,-4.816c1.234,-1.233 2.935,-1.995 4.817,-1.995l44.997,0c1.882,0 3.583,0.762 4.817,1.995c1.233,1.233 1.995,2.935 1.995,4.816l-0,25.111c-0,1.882 -0.762,3.583 -1.995,4.818c-1.234,1.232 -2.935,1.995 -4.817,1.995l-0,0.5c4.038,-0.002 7.312,-3.275 7.312,-7.313l-0,-25.111c-0,-4.038 -3.274,-7.311 -7.312,-7.311l-44.997,-0c-4.039,-0 -7.312,3.273 -7.312,7.311l0,25.111c0,4.038 3.273,7.311 7.312,7.313l44.997,0Z" style="fill:#09090c;fill-rule:nonzero;"/><path d="M612.977,239.547l-8.863,-5.761c-1.54,-1.001 -3.575,0.104 -3.575,1.939l0,11.522c0,1.836 2.035,2.941 3.575,1.94l8.863,-5.761c1.403,-0.912 1.403,-2.967 -0,-3.879Z" style="fill:#ef3e63;fill-rule:nonzero;"/><path d="M334.52,372.958l-42.379,0c-2.539,0 -4.596,-2.058 -4.596,-4.596l0,-42.38c0,-2.538 2.057,-4.596 4.596,-4.596l42.379,0c2.538,0 4.596,2.058 4.596,4.596l-0,42.38c-0,2.538 -2.058,4.596 -4.596,4.596Z" style="fill:#191b4b;fill-rule:nonzero;"/><path d="M313.33,336.45l-17.455,30.234l34.911,0l-17.456,-30.234Z" style="fill:#fff;fill-rule:nonzero;"/><path d="M333.694,334.152c0,4.372 -3.544,7.915 -7.915,7.915c-4.371,0 -7.915,-3.543 -7.915,-7.915c0,-4.371 3.544,-7.915 7.915,-7.915c4.371,-0 7.915,3.544 7.915,7.915Z" style="fill:#ef3e63;fill-rule:nonzero;"/><path d="M376.729,77.299l-14.049,0c-1.138,0 -2.061,-0.922 -2.061,-2.06l-0,-14.049c-0,-1.138 0.923,-2.061 2.061,-2.061l14.049,-0c1.138,-0 2.061,0.923 2.061,2.061l0,14.049c0,1.138 -0.923,2.06 -2.061,2.06Z" style="fill:#8c90c7;fill-rule:nonzero;"/><path d="M401.647,77.299l-14.049,0c-1.138,0 -2.061,-0.922 -2.061,-2.06l-0,-14.049c-0,-1.138 0.923,-2.061 2.061,-2.061l14.049,-0c1.138,-0 2.06,0.923 2.06,2.061l0,14.049c0,1.138 -0.922,2.06 -2.06,2.06Z" style="fill:#8c90c7;fill-rule:nonzero;"/><path d="M426.564,77.799l-0,-1l-14.048,0c-0.862,-0.001 -1.56,-0.698 -1.561,-1.56l-0,-14.049c0.001,-0.862 0.699,-1.559 1.561,-1.561l14.048,-0c0.862,0.002 1.56,0.699 1.561,1.561l0,14.049c-0.001,0.862 -0.699,1.559 -1.561,1.56l-0,1c1.415,0 2.561,-1.146 2.561,-2.56l0,-14.049c0,-1.415 -1.146,-2.561 -2.561,-2.561l-14.048,-0c-1.415,-0 -2.561,1.146 -2.561,2.561l-0,14.049c-0,1.414 1.146,2.56 2.561,2.56l14.048,0Z" style="fill:#8c90c7;fill-rule:nonzero;"/><path d="M451.482,77.299l-14.049,0c-1.138,0 -2.06,-0.922 -2.06,-2.06l-0,-14.049c-0,-1.138 0.922,-2.061 2.06,-2.061l14.049,-0c1.138,-0 2.061,0.923 2.061,2.061l-0,14.049c-0,1.138 -0.923,2.06 -2.061,2.06Z" style="fill:#8c90c7;fill-rule:nonzero;"/><path d="M411.648,66.664c2.889,1.604 5.464,4.316 7.892,7.55c0,-0 4.703,-8.297 14.869,-17.118l-4.447,-3.438c0,-0 -6.204,5.905 -10.422,16.519c-2.548,-1.976 -5.179,-3.143 -7.892,-3.513Z" style="fill:#ef3e63;fill-rule:nonzero;"/><path d="M116.657,361.364l-14.049,-0c-1.138,-0 -2.061,-0.923 -2.061,-2.061l-0,-14.049c-0,-1.138 0.923,-2.061 2.061,-2.061l14.049,-0c1.138,-0 2.06,0.923 2.06,2.061l0,14.049c0,1.138 -0.922,2.061 -2.06,2.061Z" style="fill:#8c90c7;fill-rule:nonzero;"/><path d="M141.574,361.864l0,-1l-14.048,-0c-0.862,-0.002 -1.56,-0.699 -1.561,-1.561l-0,-14.049c0.001,-0.862 0.699,-1.559 1.561,-1.561l14.048,-0c0.862,0.002 1.56,0.699 1.561,1.561l-0,14.049c-0.001,0.862 -0.699,1.559 -1.561,1.561l0,1c1.415,-0 2.561,-1.146 2.561,-2.561l-0,-14.049c-0,-1.414 -1.146,-2.56 -2.561,-2.561l-14.048,-0c-1.415,0.001 -2.561,1.147 -2.561,2.561l-0,14.049c-0,1.415 1.146,2.561 2.561,2.561l14.048,-0Z" style="fill:#8c90c7;fill-rule:nonzero;"/><path d="M166.492,361.364l-14.049,-0c-1.138,-0 -2.06,-0.923 -2.06,-2.061l-0,-14.049c-0,-1.138 0.922,-2.061 2.06,-2.061l14.049,-0c1.138,-0 2.061,0.923 2.061,2.061l-0,14.049c-0,1.138 -0.923,2.061 -2.061,2.061Z" style="fill:#8c90c7;fill-rule:nonzero;"/><path d="M126.658,350.728c2.889,1.604 5.464,4.317 7.892,7.55c0,-0 4.703,-8.297 14.869,-17.117l-4.447,-3.439c0,0 -6.204,5.905 -10.422,16.52c-2.548,-1.977 -5.179,-3.144 -7.892,-3.514Z" style="fill:#ef3e63;fill-rule:nonzero;"/><path d="M491.196,235.344l-23.595,-0c-1.348,-0 -2.44,-1.093 -2.44,-2.44l0,-18.8c0,-1.347 1.092,-2.439 2.44,-2.439l23.595,0c1.348,0 2.44,1.092 2.44,2.439l-0,18.8c-0,1.347 -1.092,2.44 -2.44,2.44Z" style="fill:#4281c3;fill-rule:nonzero;"/><path d="M490.452,211.665l-2.991,0l-0,-4.587c-0,-4.446 -3.616,-8.063 -8.062,-8.063c-4.446,0 -8.064,3.617 -8.064,8.063l-0,4.587l-2.99,0l0,-4.587c0,-6.095 4.959,-11.053 11.054,-11.053c6.094,-0 11.053,4.958 11.053,11.053l-0,4.587Z" style="fill:#09090c;fill-rule:nonzero;"/><path d="M483.937,219.614c0,-2.506 -2.032,-4.538 -4.539,-4.538c-2.506,-0 -4.538,2.032 -4.538,4.538c-0,1.912 1.186,3.541 2.861,4.209l0,7.601l3.355,0l-0,-7.601c1.675,-0.668 2.861,-2.297 2.861,-4.209Z" style="fill:#09090c;fill-rule:nonzero;"/><path d="M648.726,394.28l0,4c0,0.138 0.112,0.25 0.25,0.25c0.138,-0 0.25,-0.112 0.25,-0.25l0,-4c0,-0.138 -0.112,-0.25 -0.25,-0.25c-0.138,-0 -0.25,0.112 -0.25,0.25Zm0,8l0,4c0,0.138 0.112,0.25 0.25,0.25c0.138,-0 0.25,-0.112 0.25,-0.25l0,-4c0,-0.138 -0.112,-0.25 -0.25,-0.25c-0.138,-0 -0.25,0.112 -0.25,0.25Zm0,8l0,4c0,0.138 0.112,0.25 0.25,0.25c0.138,-0 0.25,-0.112 0.25,-0.25l0,-4c0,-0.138 -0.112,-0.25 -0.25,-0.25c-0.138,-0 -0.25,0.112 -0.25,0.25Zm0,8l0,4c0,0.138 0.112,0.25 0.25,0.25c0.138,-0 0.25,-0.112 0.25,-0.25l0,-4c0,-0.138 -0.112,-0.25 -0.25,-0.25c-0.138,-0 -0.25,0.112 -0.25,0.25Zm0,8l0,4c0,0.138 0.112,0.25 0.25,0.25c0.138,-0 0.25,-0.112 0.25,-0.25l0,-4c0,-0.138 -0.112,-0.25 -0.25,-0.25c-0.138,-0 -0.25,0.112 -0.25,0.25Zm0,8l0,4c0,0.138 0.112,0.25 0.25,0.25c0.138,-0 0.25,-0.112 0.25,-0.25l0,-4c0,-0.138 -0.112,-0.25 -0.25,-0.25c-0.138,-0 -0.25,0.112 -0.25,0.25Zm0,8l0,4c0,0.138 0.112,0.25 0.25,0.25c0.138,-0 0.25,-0.112 0.25,-0.25l0,-4c0,-0.138 -0.112,-0.25 -0.25,-0.25c-0.138,-0 -0.25,0.112 -0.25,0.25Zm0,8l0,4c0,0.138 0.112,0.25 0.25,0.25c0.138,-0 0.25,-0.112 0.25,-0.25l0,-4c0,-0.138 -0.112,-0.25 -0.25,-0.25c-0.138,-0 -0.25,0.112 -0.25,0.25Zm0,8l0,0.815c0,0.138 0.112,0.25 0.25,0.25c0.138,0 0.25,-0.112 0.25,-0.25l0,-0.815c0,-0.138 -0.112,-0.25 -0.25,-0.25c-0.138,-0 -0.25,0.112 -0.25,0.25Z" style="fill:#0a132c;fill-rule:nonzero;"/><path d="M651.593,394.28c0,1.445 -1.172,2.617 -2.617,2.617c-1.445,0 -2.617,-1.172 -2.617,-2.617c0,-1.445 1.172,-2.617 2.617,-2.617c1.445,0 2.617,1.172 2.617,2.617Z" style="fill:#0a132c;fill-rule:nonzero;"/><path d="M670.069,362.724c-0,11.648 -9.444,21.091 -21.092,21.091c-11.649,0 -21.092,-9.443 -21.092,-21.091c0,-11.649 9.443,-21.092 21.092,-21.092c11.648,0 21.092,9.443 21.092,21.092Z" style="fill:#4281c3;fill-rule:nonzero;"/><path d="M648.976,312.386c-12.696,0 -24.314,4.728 -33.175,12.514c-3.576,3.143 -3.772,8.646 -0.405,12.013c3.092,3.092 8.021,3.175 11.313,0.297c5.957,-5.209 13.749,-8.367 22.267,-8.367c8.518,0 16.31,3.158 22.267,8.367c3.292,2.878 8.221,2.795 11.313,-0.297c3.367,-3.367 3.171,-8.87 -0.405,-12.013c-8.861,-7.786 -20.479,-12.514 -33.175,-12.514Z" style="fill:#4281c3;fill-rule:nonzero;"/><path d="M648.976,284.079c-20.603,-0 -39.379,7.961 -53.415,20.969c-3.412,3.163 -3.491,8.539 -0.201,11.829l0.007,0.007c3.116,3.117 8.145,3.232 11.377,0.235c11.094,-10.286 25.942,-16.583 42.232,-16.583c16.29,-0 31.137,6.297 42.232,16.583c3.232,2.997 8.261,2.882 11.377,-0.235l0.007,-0.007c3.29,-3.29 3.211,-8.666 -0.201,-11.829c-14.036,-13.008 -32.812,-20.969 -53.415,-20.969Z" style="fill:#4281c3;fill-rule:nonzero;"/><path d="M152.877,129.858l-1,0c-0,13.309 -5.393,25.354 -14.115,34.076c-8.723,8.722 -20.767,14.115 -34.076,14.115c-13.31,0 -25.355,-5.393 -34.078,-14.115c-8.721,-8.722 -14.114,-20.767 -14.115,-34.076c0.001,-13.31 5.394,-25.355 14.115,-34.077c8.723,-8.721 20.768,-14.114 34.078,-14.115c13.309,0.001 25.353,5.394 34.076,14.115c8.722,8.722 14.115,20.767 14.115,34.077l1,0c-0,-27.168 -22.023,-49.191 -49.191,-49.192c-27.169,0.001 -49.192,22.024 -49.193,49.192c0.001,27.168 22.024,49.191 49.193,49.191c27.168,0 49.191,-22.023 49.191,-49.191Z" style="fill:#4281c3;fill-rule:nonzero;"/><path d="M128.645,129.858l-1,0c0.002,13.377 -2.728,25.485 -7.111,34.205c-2.19,4.361 -4.792,7.872 -7.65,10.277c-2.86,2.407 -5.959,3.709 -9.198,3.709c-3.239,0 -6.339,-1.302 -9.199,-3.709c-4.289,-3.606 -7.995,-9.706 -10.611,-17.419c-2.617,-7.712 -4.151,-17.03 -4.15,-27.063c-0.002,-13.378 2.728,-25.485 7.111,-34.206c2.189,-4.36 4.792,-7.871 7.65,-10.277c2.86,-2.406 5.96,-3.708 9.199,-3.709c3.239,0.001 6.338,1.303 9.198,3.709c4.289,3.607 7.995,9.707 10.61,17.419c2.618,7.712 4.151,17.03 4.151,27.064l1,0c-0.001,-13.515 -2.747,-25.753 -7.217,-34.655c-2.237,-4.45 -4.905,-8.07 -7.9,-10.593c-2.991,-2.521 -6.327,-3.945 -9.842,-3.944c-3.516,-0.001 -6.852,1.423 -9.844,3.944c-4.49,3.785 -8.253,10.034 -10.912,17.863c-2.658,7.831 -4.204,17.249 -4.204,27.385c0.001,13.514 2.747,25.752 7.217,34.654c2.236,4.451 4.905,8.071 7.899,10.593c2.992,2.522 6.328,3.945 9.844,3.944c3.515,0.001 6.851,-1.422 9.842,-3.944c4.491,-3.785 8.254,-10.033 10.913,-17.863c2.657,-7.831 4.204,-17.249 4.204,-27.384Z" style="fill:#4281c3;fill-rule:nonzero;"/><path d="M140.757,98.173c-8.824,5.287 -22.157,8.685 -37.073,8.683c-14.917,0.002 -28.25,-3.396 -37.074,-8.683l-0.513,0.858c9.04,5.41 22.517,8.822 37.587,8.825c15.069,-0.003 28.546,-3.415 37.587,-8.825l-0.514,-0.858Z" style="fill:#4281c3;fill-rule:nonzero;"/><path d="M66.61,161.543c8.824,-5.288 22.157,-8.685 37.074,-8.683c14.916,-0.002 28.249,3.395 37.073,8.683l0.514,-0.858c-9.041,-5.41 -22.518,-8.823 -37.587,-8.825c-15.07,0.002 -28.547,3.415 -37.587,8.825l0.513,0.858Z" style="fill:#4281c3;fill-rule:nonzero;"/><path d="M103.186,81.166l-0,97.383l1,0l-0,-97.383" style="fill:#4281c3;fill-rule:nonzero;"/><path d="M152.377,129.358l-97.384,0l0,1l97.384,0" style="fill:#4281c3;fill-rule:nonzero;"/><path d="M103.436,185.912l-0,4c-0,0.138 0.112,0.25 0.25,0.25c0.138,-0 0.25,-0.112 0.25,-0.25l-0,-4c-0,-0.138 -0.112,-0.25 -0.25,-0.25c-0.138,-0 -0.25,0.112 -0.25,0.25Zm-0,8l-0,4c-0,0.138 0.112,0.25 0.25,0.25c0.138,-0 0.25,-0.112 0.25,-0.25l-0,-4c-0,-0.138 -0.112,-0.25 -0.25,-0.25c-0.138,-0 -0.25,0.112 -0.25,0.25Zm-0,8l-0,4c-0,0.138 0.112,0.25 0.25,0.25c0.138,-0 0.25,-0.112 0.25,-0.25l-0,-4c-0,-0.138 -0.112,-0.25 -0.25,-0.25c-0.138,-0 -0.25,0.112 -0.25,0.25Zm-0,8l-0,4c-0,0.138 0.112,0.25 0.25,0.25c0.138,-0 0.25,-0.112 0.25,-0.25l-0,-4c-0,-0.138 -0.112,-0.25 -0.25,-0.25c-0.138,-0 -0.25,0.112 -0.25,0.25Zm-0,8l-0,4c-0,0.138 0.112,0.25 0.25,0.25c0.138,-0 0.25,-0.112 0.25,-0.25l-0,-4c-0,-0.138 -0.112,-0.25 -0.25,-0.25c-0.138,-0 -0.25,0.112 -0.25,0.25Zm-0,8l-0,4c-0,0.138 0.112,0.25 0.25,0.25c0.138,-0 0.25,-0.112 0.25,-0.25l-0,-4c-0,-0.138 -0.112,-0.25 -0.25,-0.25c-0.138,-0 -0.25,0.112 -0.25,0.25Zm-0,8l-0,4c-0,0.138 0.112,0.25 0.25,0.25c0.138,-0 0.25,-0.112 0.25,-0.25l-0,-4c-0,-0.138 -0.112,-0.25 -0.25,-0.25c-0.138,-0 -0.25,0.112 -0.25,0.25Zm-0,8l-0,4c-0,0.138 0.112,0.25 0.25,0.25c0.138,0 0.25,-0.112 0.25,-0.25l-0,-4c-0,-0.138 -0.112,-0.25 -0.25,-0.25c-0.138,-0 -0.25,0.112 -0.25,0.25Zm-0,8l-0,4c-0,0.138 0.112,0.25 0.25,0.25c0.138,0 0.25,-0.112 0.25,-0.25l-0,-4c-0,-0.138 -0.112,-0.25 -0.25,-0.25c-0.138,0 -0.25,0.112 -0.25,0.25Zm-0,8l-0,4c-0,0.138 0.112,0.25 0.25,0.25c0.138,0 0.25,-0.112 0.25,-0.25l-0,-4c-0,-0.138 -0.112,-0.25 -0.25,-0.25c-0.138,0 -0.25,0.112 -0.25,0.25Zm-0,8l-0,4c-0,0.138 0.112,0.25 0.25,0.25c0.138,0 0.25,-0.112 0.25,-0.25l-0,-4c-0,-0.138 -0.112,-0.25 -0.25,-0.25c-0.138,0 -0.25,0.112 -0.25,0.25Zm-0,8l-0,4c-0,0.138 0.112,0.25 0.25,0.25c0.138,0 0.25,-0.112 0.25,-0.25l-0,-4c-0,-0.138 -0.112,-0.25 -0.25,-0.25c-0.138,0 -0.25,0.112 -0.25,0.25Zm-0,8l-0,4c-0,0.138 0.112,0.25 0.25,0.25c0.138,0 0.25,-0.112 0.25,-0.25l-0,-4c-0,-0.138 -0.112,-0.25 -0.25,-0.25c-0.138,0 -0.25,0.112 -0.25,0.25Zm-0,8l-0,4c-0,0.138 0.112,0.25 0.25,0.25c0.138,0 0.25,-0.112 0.25,-0.25l-0,-4c-0,-0.138 -0.112,-0.25 -0.25,-0.25c-0.138,0 -0.25,0.112 -0.25,0.25Zm-0,8l-0,0.64c-0,1.182 0.194,2.319 0.552,3.381c0.044,0.131 0.186,0.201 0.317,0.157c0.13,-0.044 0.201,-0.186 0.157,-0.317c-0.341,-1.011 -0.526,-2.094 -0.526,-3.221l-0,-0.64c-0,-0.138 -0.112,-0.25 -0.25,-0.25c-0.138,0 -0.25,0.112 -0.25,0.25Zm2.573,7.554c0.891,1.031 1.978,1.887 3.204,2.512c0.123,0.062 0.273,0.014 0.336,-0.109c0.063,-0.123 0.014,-0.274 -0.109,-0.337c-1.167,-0.595 -2.203,-1.411 -3.053,-2.393c-0.09,-0.104 -0.248,-0.116 -0.352,-0.025c-0.105,0.09 -0.116,0.248 -0.026,0.352Zm7.119,3.624c0.29,0.024 0.584,0.036 0.881,0.036l3.138,0c0.138,0 0.25,-0.112 0.25,-0.25c0,-0.138 -0.112,-0.25 -0.25,-0.25l-3.138,0c-0.283,0 -0.563,-0.012 -0.84,-0.035c-0.138,-0.011 -0.258,0.091 -0.27,0.229c-0.011,0.137 0.091,0.258 0.229,0.27Zm8.019,0.036l4,0c0.138,0 0.25,-0.112 0.25,-0.25c0,-0.138 -0.112,-0.25 -0.25,-0.25l-4,0c-0.138,0 -0.25,0.112 -0.25,0.25c0,0.138 0.112,0.25 0.25,0.25Zm8,0l4,0c0.138,0 0.25,-0.112 0.25,-0.25c0,-0.138 -0.112,-0.25 -0.25,-0.25l-4,0c-0.138,0 -0.25,0.112 -0.25,0.25c0,0.138 0.112,0.25 0.25,0.25Zm8,0l4,0c0.138,0 0.25,-0.112 0.25,-0.25c0,-0.138 -0.112,-0.25 -0.25,-0.25l-4,0c-0.138,0 -0.25,0.112 -0.25,0.25c0,0.138 0.112,0.25 0.25,0.25Zm8,0l4,0c0.138,0 0.25,-0.112 0.25,-0.25c0,-0.138 -0.112,-0.25 -0.25,-0.25l-4,0c-0.138,0 -0.25,0.112 -0.25,0.25c0,0.138 0.112,0.25 0.25,0.25Zm8,0l4,0c0.138,0 0.25,-0.112 0.25,-0.25c0,-0.138 -0.112,-0.25 -0.25,-0.25l-4,0c-0.138,0 -0.25,0.112 -0.25,0.25c0,0.138 0.112,0.25 0.25,0.25Zm8,0l4,0c0.138,0 0.25,-0.112 0.25,-0.25c0,-0.138 -0.112,-0.25 -0.25,-0.25l-4,0c-0.138,0 -0.25,0.112 -0.25,0.25c0,0.138 0.112,0.25 0.25,0.25Zm8,0l4,0c0.138,0 0.25,-0.112 0.25,-0.25c0,-0.138 -0.112,-0.25 -0.25,-0.25l-4,0c-0.138,0 -0.25,0.112 -0.25,0.25c0,0.138 0.112,0.25 0.25,0.25Zm8,0l4,0c0.138,0 0.25,-0.112 0.25,-0.25c0,-0.138 -0.112,-0.25 -0.25,-0.25l-4,0c-0.138,0 -0.25,0.112 -0.25,0.25c0,0.138 0.112,0.25 0.25,0.25Z" style="fill:#0a132c;fill-rule:nonzero;"/><path d="M106.749,185.912c0,1.692 -1.371,3.064 -3.063,3.064c-1.692,0 -3.064,-1.372 -3.064,-3.064c0,-1.692 1.372,-3.064 3.064,-3.064c1.692,-0 3.063,1.372 3.063,3.064Z" style="fill:#0a132c;fill-rule:nonzero;"/><rect x="82.021" y="457.117" width="585.958" height="3.956" style="fill:#030404;fill-rule:nonzero;"/><path d="M475.319,468.994l133.528,-0l-0,-1l-133.528,-0" style="fill:#09090c;fill-rule:nonzero;"/><path d="M407.081,468.994l59.708,-0l0,-1l-59.708,-0" style="fill:#09090c;fill-rule:nonzero;"/><path d="M178.193,468.994l129.714,-0l0,-1l-129.714,-0" style="fill:#09090c;fill-rule:nonzero;"/></g></svg>