<?xml version="1.0" encoding="UTF-8" standalone="no"?>
<!DOCTYPE svg PUBLIC "-//W3C//DTD SVG 1.1//EN" "http://www.w3.org/Graphics/SVG/1.1/DTD/svg11.dtd">
<svg width="100%" height="100%" viewBox="0 0 260 70" version="1.1" xmlns="http://www.w3.org/2000/svg" xmlns:xlink="http://www.w3.org/1999/xlink" xml:space="preserve" xmlns:serif="http://www.serif.com/" style="fill-rule:evenodd;clip-rule:evenodd;stroke-linejoin:round;stroke-miterlimit:2;">
    <g transform="matrix(0.034053,0,0,0.034053,-17.4449,0.565533)">
        <g transform="matrix(1,0,0,1,323.883,-32.7523)">
            <path d="M1100,656.928C900.391,656.928 738.581,818.738 738.581,1018.35L657.175,1135.42L428.76,1135.42L330.879,1018.35L330.879,943.788C330.879,918.102 347.359,895.296 371.743,887.234L516.455,839.373C527.884,802.035 542.786,766.208 560.817,732.289L492.334,596.112C480.787,573.149 485.258,545.385 503.434,527.222L608.875,421.781C627.038,403.605 654.802,399.134 677.765,410.681L813.942,479.164C847.861,461.133 883.688,446.231 921.026,434.802L968.887,290.09C976.949,265.706 999.755,249.226 1025.44,249.226L1100,249.226L1125.66,284.684L1125.66,633.787L1100,656.928Z" style="fill:rgb(42,196,243);fill-rule:nonzero;"/>
        </g>
        <g transform="matrix(1,0,0,1,323.883,-32.7523)">
            <path d="M1869.12,943.788L1869.12,1018.35L1845.87,1051.51L1484.56,1051.51L1461.42,1018.35C1461.42,818.738 1299.61,656.928 1100,656.928L1100,536.626C1100,529.826 1091.89,526.301 1086.93,530.957C1076.81,540.426 1063.21,546.213 1048.26,546.2C1016.96,546.2 991.245,520.028 991.745,488.726C992.245,457.923 1017.37,433.092 1048.29,433.092C1063.21,433.092 1076.79,438.892 1086.89,448.336C1091.87,452.991 1100,449.493 1100,442.693L1100,249.226L1174.56,249.226C1200.25,249.226 1223.05,265.706 1231.11,290.09L1278.97,434.802C1316.31,446.231 1352.14,461.133 1386.06,479.164L1522.23,410.681C1545.2,399.134 1572.96,403.605 1591.13,421.781L1696.57,527.222C1714.74,545.385 1719.21,573.149 1707.67,596.112L1639.18,732.289C1657.21,766.208 1672.12,802.035 1683.55,839.373L1828.26,887.234C1852.64,895.296 1869.12,918.102 1869.12,943.788Z" style="fill:rgb(232,81,81);fill-rule:nonzero;"/>
        </g>
        <g transform="matrix(1,0,0,1,323.883,-32.7523)">
            <path d="M1869.12,1018.35L1869.12,1092.91C1869.12,1118.59 1852.64,1141.4 1828.26,1149.46L1683.55,1197.32C1672.12,1234.66 1657.21,1270.49 1639.18,1304.41L1707.67,1440.58C1719.21,1463.55 1714.74,1491.31 1696.57,1509.47L1591.13,1614.91C1572.96,1633.09 1545.2,1637.56 1522.23,1626.01L1386.06,1557.53C1352.14,1575.56 1316.31,1590.46 1278.97,1601.89L1231.11,1746.6C1223.05,1770.99 1200.25,1787.47 1174.56,1787.47L1100,1787.47L1060.4,1757.73L1060.4,1426.76L1100,1379.77C1299.61,1379.77 1461.42,1217.96 1461.42,1018.35L1581.72,1018.35C1588.52,1018.35 1592.05,1010.23 1587.39,1005.27C1577.92,995.16 1572.13,981.561 1572.15,966.607C1572.15,935.305 1598.32,909.592 1629.62,910.092C1660.42,910.592 1685.25,935.712 1685.25,966.633C1685.25,981.561 1679.45,995.134 1670.01,1005.23C1665.36,1010.22 1668.85,1018.35 1675.65,1018.35L1869.12,1018.35Z" style="fill:rgb(78,185,94);fill-rule:nonzero;"/>
        </g>
        <g transform="matrix(1,0,0,1,323.883,-32.7523)">
            <path d="M1208.25,1547.97C1207.75,1578.77 1182.63,1603.6 1151.71,1603.6C1136.79,1603.6 1123.21,1597.8 1113.11,1588.36C1108.13,1583.7 1100,1587.2 1100,1594L1100,1787.47L1025.44,1787.47C999.755,1787.47 976.949,1770.99 968.887,1746.6L921.026,1601.89C883.688,1590.46 847.861,1575.56 813.942,1557.53L677.765,1626.01C654.802,1637.56 627.038,1633.09 608.875,1614.91L503.434,1509.47C485.258,1491.31 480.787,1463.55 492.334,1440.58L560.817,1304.41C542.786,1270.49 527.884,1234.66 516.455,1197.32L371.743,1149.46C347.359,1141.4 330.879,1118.59 330.879,1092.91L330.879,1018.35L524.346,1018.35C531.146,1018.35 534.644,1026.48 529.988,1031.46C520.544,1041.56 514.745,1055.13 514.745,1070.06C514.745,1100.98 539.576,1126.1 570.379,1126.6C601.681,1127.1 627.853,1101.39 627.853,1070.09C627.866,1055.13 622.079,1041.53 612.61,1031.42C607.954,1026.46 611.479,1018.35 618.278,1018.35L738.581,1018.35C738.581,1217.96 900.391,1379.77 1100,1379.77L1100,1500.07C1100,1506.87 1108.11,1510.39 1113.07,1505.74C1123.19,1496.27 1136.79,1490.48 1151.74,1490.49C1183.04,1490.49 1208.75,1516.67 1208.25,1547.97Z" style="fill:rgb(247,203,45);fill-rule:nonzero;"/>
        </g>
        <g transform="matrix(1,0,0,1,323.883,-32.7523)">
            <path d="M1591.9,1902.79C1591.9,1929.29 1371.67,1950.77 1100,1950.77C828.329,1950.77 608.096,1929.29 608.096,1902.79C608.096,1876.29 828.329,1854.81 1100,1854.81C1371.67,1854.81 1591.9,1876.29 1591.9,1902.79Z" style="fill:rgb(184,203,207);fill-rule:nonzero;"/>
        </g>
        <g transform="matrix(36.9633,0,0,36.9633,128.412,-377.34)">
            <g transform="matrix(63.5831,0,0,63.5831,203.869,59.2584)">
            </g>
            <text x="61.824px" y="59.258px" style="font-family:'EpundaSans-Medium', 'Epunda Sans';font-weight:500;font-size:63.583px;">C<tspan x="95.714px 110.529px 141.176px 171.887px " y="59.258px 59.258px 59.258px 59.258px ">IaaS</tspan></text>
        </g>
        <g transform="matrix(63.4482,0,0,63.4482,-5284.6,-474.36)">
            <g transform="matrix(18.0178,0,0,18.0178,211.773,23.9609)">
            </g>
            <text x="200.962px" y="23.961px" style="font-family:'EpundaSans-Medium', 'Epunda Sans';font-weight:500;font-size:18.018px;">®</text>
        </g>
    </g>
</svg>
