<?xml version="1.0" encoding="utf-8"?>
<!-- Generator: Adobe Illustrator 27.1.0, SVG Export Plug-In . SVG Version: 6.00 Build 0)  -->
<svg version="1.1" id="Layer_1" xmlns="http://www.w3.org/2000/svg" xmlns:xlink="http://www.w3.org/1999/xlink" x="0px" y="0px"
	 viewBox="0 0 173 52" style="enable-background:new 0 0 173 52;" xml:space="preserve">
<style type="text/css">
	.st0{fill:none;}
</style>
<g>
	<g>
		<path d="M37.56,48.48c-2.34,1.08-4.62,1.87-6.83,2.36c-2.21,0.49-4.62,0.73-7.22,0.73c-7.14,0-12.72-2.09-16.76-6.26
			c-4.03-4.18-6.05-9.88-6.05-17.1c0-7.38,2.23-13.36,6.69-17.96c4.46-4.6,10.3-6.9,17.52-6.9c2.32,0,4.45,0.19,6.39,0.57
			c1.94,0.38,3.95,0.99,6.04,1.84l-2.51,6.31c-1.65-0.67-3.25-1.16-4.8-1.46c-1.55-0.3-3.23-0.46-5.03-0.46
			c-4.73,0-8.61,1.57-11.63,4.72c-3.03,3.15-4.54,7.42-4.54,12.82c0,5.27,1.4,9.43,4.2,12.48s6.55,4.57,11.26,4.57
			c1.54,0,3.19-0.19,4.95-0.58c1.76-0.39,3.57-1.03,5.43-1.92L37.56,48.48z"/>
		<path d="M52.91,50.79h-7.84V4.13h7.84V50.79z"/>
		<path d="M89.07,50.79h-7.32v-5.01h-0.13c-1.13,1.93-2.53,3.38-4.2,4.34s-3.59,1.45-5.76,1.45c-3.02,0-5.52-0.9-7.52-2.68
			c-2-1.79-2.99-4.24-2.99-7.34c0-2.95,1-5.37,2.99-7.27c2-1.9,4.96-3.13,8.88-3.69l8.75-1.17v-0.68c0-2.26-0.59-3.89-1.76-4.91
			c-1.17-1.02-2.76-1.53-4.75-1.53c-1.58,0-3.19,0.28-4.83,0.85c-1.64,0.56-3.23,1.44-4.77,2.64l-3.29-4.52
			c2.04-1.56,4.14-2.71,6.31-3.45c2.17-0.74,4.56-1.11,7.16-1.11c4.47,0,7.79,1.1,9.96,3.3c2.17,2.2,3.25,5.5,3.25,9.91V50.79z
			 M81.78,37.26v-2.83l-7.13,0.94c-2.1,0.3-3.68,0.87-4.73,1.71c-1.05,0.83-1.58,2.05-1.58,3.66c0,1.63,0.5,2.9,1.5,3.81
			c1,0.91,2.28,1.37,3.84,1.37c2.45,0,4.41-0.82,5.89-2.46C81.04,41.82,81.78,39.75,81.78,37.26z"/>
		<path d="M123.85,50.79h-7.32v-5.01h-0.13c-1.13,1.93-2.53,3.38-4.2,4.34c-1.67,0.96-3.59,1.45-5.76,1.45
			c-3.01,0-5.52-0.9-7.52-2.68c-2-1.79-2.99-4.24-2.99-7.34c0-2.95,1-5.37,2.99-7.27s4.96-3.13,8.88-3.69l8.75-1.17v-0.68
			c0-2.26-0.59-3.89-1.76-4.91c-1.17-1.02-2.76-1.53-4.75-1.53c-1.58,0-3.19,0.28-4.83,0.85c-1.64,0.56-3.23,1.44-4.77,2.64
			l-3.29-4.52c2.04-1.56,4.14-2.71,6.31-3.45s4.56-1.11,7.16-1.11c4.47,0,7.79,1.1,9.96,3.3c2.17,2.2,3.25,5.5,3.25,9.91V50.79z
			 M116.56,37.26v-2.83l-7.13,0.94c-2.1,0.3-3.68,0.87-4.73,1.71c-1.05,0.83-1.58,2.05-1.58,3.66c0,1.63,0.5,2.9,1.5,3.81
			c1,0.91,2.28,1.37,3.84,1.37c2.45,0,4.41-0.82,5.89-2.46C115.82,41.82,116.56,39.75,116.56,37.26z"/>
		<path d="M130.1,47.44l3.45-5.96c2.1,1.3,4.07,2.22,5.89,2.75c1.82,0.53,3.86,0.8,6.12,0.8c2.69,0,4.81-0.58,6.36-1.74
			s2.33-2.83,2.33-5c0-1.97-0.65-3.53-1.94-4.67c-1.29-1.14-3.48-2.19-6.56-3.14c-4.75-1.41-8.24-3.16-10.48-5.24
			c-2.23-2.08-3.35-4.9-3.35-8.46c0-3.86,1.44-7.07,4.33-9.62c2.89-2.55,6.8-3.82,11.75-3.82c2.17,0,4.31,0.24,6.41,0.72
			c2.1,0.48,4.19,1.22,6.25,2.21l-2.9,6.18c-1.8-0.93-3.52-1.59-5.16-1.98c-1.64-0.39-3.3-0.59-5-0.59c-2.47,0-4.42,0.54-5.84,1.63
			c-1.42,1.08-2.13,2.61-2.13,4.59c0,1.76,0.65,3.14,1.95,4.15s3.54,2,6.7,2.98c4.86,1.45,8.36,3.27,10.49,5.43
			c2.14,2.17,3.21,5.15,3.21,8.95c0,4.08-1.45,7.42-4.36,10.04c-2.91,2.61-7.05,3.92-12.43,3.92c-2.69,0-5.32-0.34-7.88-1.03
			S132.35,48.83,130.1,47.44z"/>
	</g>
</g>
<rect x="9.07" y="20.57" class="st0" width="26.34" height="0.53"/>
<g>
	<g>
		<path d="M169.19,7.11c-1.05,0-1.91-0.35-2.56-1.05s-0.98-1.52-0.98-2.47c0-0.94,0.33-1.76,0.98-2.46s1.51-1.05,2.58-1.05
			c1.06,0,1.91,0.35,2.56,1.05s0.97,1.52,0.96,2.46c0,0.95-0.33,1.77-0.98,2.47S170.25,7.11,169.19,7.11z M169.2,0.68
			c-0.79,0-1.48,0.27-2.06,0.81s-0.88,1.24-0.88,2.12c0,0.87,0.29,1.57,0.88,2.11s1.27,0.81,2.06,0.81c0.79,0,1.47-0.27,2.05-0.81
			s0.87-1.24,0.87-2.11s-0.29-1.58-0.87-2.12S169.98,0.68,169.2,0.68z M170.96,5.75h-0.99l-0.43-1.08c-0.1-0.23-0.2-0.41-0.31-0.53
			s-0.23-0.18-0.36-0.18h-0.29v1.78h-0.84V1.34h1.37c0.55,0,0.96,0.11,1.25,0.32s0.43,0.51,0.43,0.91c0,0.3-0.09,0.55-0.28,0.76
			s-0.45,0.35-0.8,0.42v0.02c0.13,0.03,0.25,0.11,0.37,0.24s0.23,0.3,0.33,0.52L170.96,5.75z M168.58,2.05V3.3h0.51
			c0.27,0,0.47-0.05,0.6-0.16s0.2-0.27,0.2-0.48c0-0.23-0.07-0.39-0.22-0.48s-0.38-0.14-0.69-0.14H168.58z"/>
	</g>
</g>
</svg>
